<?xml version="1.0" encoding="utf-8" standalone="no"?>
<!DOCTYPE svg PUBLIC "-//W3C//DTD SVG 1.1//EN"
  "http://www.w3.org/Graphics/SVG/1.1/DTD/svg11.dtd">
<svg xmlns:xlink="http://www.w3.org/1999/xlink" width="360pt" height="144pt" viewBox="0 0 360 144" xmlns="http://www.w3.org/2000/svg" version="1.1">
 <metadata>
  <rdf:RDF xmlns:dc="http://purl.org/dc/elements/1.1/" xmlns:cc="http://creativecommons.org/ns#" xmlns:rdf="http://www.w3.org/1999/02/22-rdf-syntax-ns#">
   <cc:Work>
    <dc:type rdf:resource="http://purl.org/dc/dcmitype/StillImage"/>
    <dc:date>2024-06-17T09:32:43.747394</dc:date>
    <dc:format>image/svg+xml</dc:format>
    <dc:creator>
     <cc:Agent>
      <dc:title>Matplotlib v3.9.0, https://matplotlib.org/</dc:title>
     </cc:Agent>
    </dc:creator>
   </cc:Work>
  </rdf:RDF>
 </metadata>
 <defs>
  <style type="text/css">*{stroke-linejoin: round; stroke-linecap: butt}</style>
 </defs>
 <g id="figure_1">
  <g id="patch_1">
   <path d="M 0 144 
L 360 144 
L 360 0 
L 0 0 
z
" style="fill: #ffffff"/>
  </g>
  <g id="axes_1">
   <g id="patch_2">
    <path d="M 56.99 100.96 
L 348.12 100.96 
L 348.12 11.88 
L 56.99 11.88 
z
" style="fill: #ffffff"/>
   </g>
   <g id="matplotlib.axis_1">
    <g id="xtick_1">
     <g id="line2d_1">
      <path d="M 70.223182 100.96 
L 70.223182 11.88 
" clip-path="url(#pcb175320f9)" style="fill: none; stroke: #b0b0b0; stroke-width: 0.8; stroke-linecap: square"/>
     </g>
     <g id="line2d_2">
      <defs>
       <path id="m01158b62cb" d="M 0 0 
L 0 3.5 
" style="stroke: #000000; stroke-width: 0.8"/>
      </defs>
      <g>
       <use xlink:href="#m01158b62cb" x="70.223182" y="100.96" style="stroke: #000000; stroke-width: 0.8"/>
      </g>
     </g>
     <g id="text_1">
      <!-- 0 -->
      <g transform="translate(67.041932 115.558437) scale(0.1 -0.1)">
       <defs>
        <path id="DejaVuSerif-30" d="M 2034 219 
Q 2513 219 2750 744 
Q 2988 1269 2988 2328 
Q 2988 3391 2750 3916 
Q 2513 4441 2034 4441 
Q 1556 4441 1318 3916 
Q 1081 3391 1081 2328 
Q 1081 1269 1318 744 
Q 1556 219 2034 219 
z
M 2034 -91 
Q 1275 -91 848 546 
Q 422 1184 422 2328 
Q 422 3475 848 4112 
Q 1275 4750 2034 4750 
Q 2797 4750 3222 4112 
Q 3647 3475 3647 2328 
Q 3647 1184 3222 546 
Q 2797 -91 2034 -91 
z
" transform="scale(0.015625)"/>
       </defs>
       <use xlink:href="#DejaVuSerif-30"/>
      </g>
     </g>
    </g>
    <g id="xtick_2">
     <g id="line2d_3">
      <path d="M 123.155909 100.96 
L 123.155909 11.88 
" clip-path="url(#pcb175320f9)" style="fill: none; stroke: #b0b0b0; stroke-width: 0.8; stroke-linecap: square"/>
     </g>
     <g id="line2d_4">
      <g>
       <use xlink:href="#m01158b62cb" x="123.155909" y="100.96" style="stroke: #000000; stroke-width: 0.8"/>
      </g>
     </g>
     <g id="text_2">
      <!-- 1 -->
      <g transform="translate(119.974659 115.558437) scale(0.1 -0.1)">
       <defs>
        <path id="DejaVuSerif-31" d="M 909 0 
L 909 331 
L 1722 331 
L 1722 4213 
L 781 3603 
L 781 4013 
L 1919 4750 
L 2350 4750 
L 2350 331 
L 3163 331 
L 3163 0 
L 909 0 
z
" transform="scale(0.015625)"/>
       </defs>
       <use xlink:href="#DejaVuSerif-31"/>
      </g>
     </g>
    </g>
    <g id="xtick_3">
     <g id="line2d_5">
      <path d="M 176.088636 100.96 
L 176.088636 11.88 
" clip-path="url(#pcb175320f9)" style="fill: none; stroke: #b0b0b0; stroke-width: 0.8; stroke-linecap: square"/>
     </g>
     <g id="line2d_6">
      <g>
       <use xlink:href="#m01158b62cb" x="176.088636" y="100.96" style="stroke: #000000; stroke-width: 0.8"/>
      </g>
     </g>
     <g id="text_3">
      <!-- 2 -->
      <g transform="translate(172.907386 115.558437) scale(0.1 -0.1)">
       <defs>
        <path id="DejaVuSerif-32" d="M 819 3553 
L 469 3553 
L 469 4384 
Q 803 4563 1142 4656 
Q 1481 4750 1806 4750 
Q 2534 4750 2956 4397 
Q 3378 4044 3378 3438 
Q 3378 2753 2422 1800 
Q 2347 1728 2309 1691 
L 1131 513 
L 3078 513 
L 3078 1088 
L 3444 1088 
L 3444 0 
L 434 0 
L 434 341 
L 1850 1753 
Q 2319 2222 2519 2614 
Q 2719 3006 2719 3438 
Q 2719 3909 2473 4175 
Q 2228 4441 1797 4441 
Q 1350 4441 1106 4219 
Q 863 3997 819 3553 
z
" transform="scale(0.015625)"/>
       </defs>
       <use xlink:href="#DejaVuSerif-32"/>
      </g>
     </g>
    </g>
    <g id="xtick_4">
     <g id="line2d_7">
      <path d="M 229.021364 100.96 
L 229.021364 11.88 
" clip-path="url(#pcb175320f9)" style="fill: none; stroke: #b0b0b0; stroke-width: 0.8; stroke-linecap: square"/>
     </g>
     <g id="line2d_8">
      <g>
       <use xlink:href="#m01158b62cb" x="229.021364" y="100.96" style="stroke: #000000; stroke-width: 0.8"/>
      </g>
     </g>
     <g id="text_4">
      <!-- 3 -->
      <g transform="translate(225.840114 115.558437) scale(0.1 -0.1)">
       <defs>
        <path id="DejaVuSerif-33" d="M 622 4469 
Q 988 4606 1323 4678 
Q 1659 4750 1953 4750 
Q 2638 4750 3022 4454 
Q 3406 4159 3406 3634 
Q 3406 3213 3140 2930 
Q 2875 2647 2388 2547 
Q 2963 2466 3280 2130 
Q 3597 1794 3597 1259 
Q 3597 606 3158 257 
Q 2719 -91 1894 -91 
Q 1528 -91 1179 -12 
Q 831 66 488 225 
L 488 1131 
L 838 1131 
Q 869 681 1141 450 
Q 1413 219 1906 219 
Q 2384 219 2661 495 
Q 2938 772 2938 1253 
Q 2938 1803 2653 2086 
Q 2369 2369 1819 2369 
L 1522 2369 
L 1522 2688 
L 1678 2688 
Q 2225 2688 2498 2914 
Q 2772 3141 2772 3597 
Q 2772 4006 2547 4223 
Q 2322 4441 1900 4441 
Q 1478 4441 1245 4241 
Q 1013 4041 972 3647 
L 622 3647 
L 622 4469 
z
" transform="scale(0.015625)"/>
       </defs>
       <use xlink:href="#DejaVuSerif-33"/>
      </g>
     </g>
    </g>
    <g id="xtick_5">
     <g id="line2d_9">
      <path d="M 281.954091 100.96 
L 281.954091 11.88 
" clip-path="url(#pcb175320f9)" style="fill: none; stroke: #b0b0b0; stroke-width: 0.8; stroke-linecap: square"/>
     </g>
     <g id="line2d_10">
      <g>
       <use xlink:href="#m01158b62cb" x="281.954091" y="100.96" style="stroke: #000000; stroke-width: 0.8"/>
      </g>
     </g>
     <g id="text_5">
      <!-- 4 -->
      <g transform="translate(278.772841 115.558437) scale(0.1 -0.1)">
       <defs>
        <path id="DejaVuSerif-34" d="M 2234 1581 
L 2234 4063 
L 641 1581 
L 2234 1581 
z
M 3609 0 
L 1484 0 
L 1484 331 
L 2234 331 
L 2234 1247 
L 197 1247 
L 197 1588 
L 2241 4750 
L 2859 4750 
L 2859 1581 
L 3750 1581 
L 3750 1247 
L 2859 1247 
L 2859 331 
L 3609 331 
L 3609 0 
z
" transform="scale(0.015625)"/>
       </defs>
       <use xlink:href="#DejaVuSerif-34"/>
      </g>
     </g>
    </g>
    <g id="xtick_6">
     <g id="line2d_11">
      <path d="M 334.886818 100.96 
L 334.886818 11.88 
" clip-path="url(#pcb175320f9)" style="fill: none; stroke: #b0b0b0; stroke-width: 0.8; stroke-linecap: square"/>
     </g>
     <g id="line2d_12">
      <g>
       <use xlink:href="#m01158b62cb" x="334.886818" y="100.96" style="stroke: #000000; stroke-width: 0.8"/>
      </g>
     </g>
     <g id="text_6">
      <!-- 5 -->
      <g transform="translate(331.705568 115.558437) scale(0.1 -0.1)">
       <defs>
        <path id="DejaVuSerif-35" d="M 3219 4666 
L 3219 4153 
L 1081 4153 
L 1081 2816 
Q 1244 2928 1461 2984 
Q 1678 3041 1947 3041 
Q 2703 3041 3140 2622 
Q 3578 2203 3578 1478 
Q 3578 738 3136 323 
Q 2694 -91 1894 -91 
Q 1572 -91 1234 -12 
Q 897 66 544 225 
L 544 1131 
L 897 1131 
Q 925 688 1179 453 
Q 1434 219 1894 219 
Q 2388 219 2653 544 
Q 2919 869 2919 1478 
Q 2919 2084 2655 2407 
Q 2391 2731 1894 2731 
Q 1613 2731 1398 2631 
Q 1184 2531 1019 2322 
L 750 2322 
L 750 4666 
L 3219 4666 
z
" transform="scale(0.015625)"/>
       </defs>
       <use xlink:href="#DejaVuSerif-35"/>
      </g>
     </g>
    </g>
    <g id="text_7">
     <!-- Time [s] -->
     <g transform="translate(179.794453 129.996406) scale(0.11 -0.11)">
      <defs>
       <path id="DejaVuSerif-54" d="M 1222 0 
L 1222 331 
L 1819 331 
L 1819 4294 
L 447 4294 
L 447 3566 
L 63 3566 
L 63 4666 
L 4206 4666 
L 4206 3566 
L 3822 3566 
L 3822 4294 
L 2450 4294 
L 2450 331 
L 3047 331 
L 3047 0 
L 1222 0 
z
" transform="scale(0.015625)"/>
       <path id="DejaVuSerif-69" d="M 622 4353 
Q 622 4497 726 4603 
Q 831 4709 978 4709 
Q 1122 4709 1226 4603 
Q 1331 4497 1331 4353 
Q 1331 4206 1228 4103 
Q 1125 4000 978 4000 
Q 831 4000 726 4103 
Q 622 4206 622 4353 
z
M 1356 331 
L 1900 331 
L 1900 0 
L 231 0 
L 231 331 
L 781 331 
L 781 2988 
L 231 2988 
L 231 3322 
L 1356 3322 
L 1356 331 
z
" transform="scale(0.015625)"/>
       <path id="DejaVuSerif-6d" d="M 3316 2675 
Q 3481 3041 3739 3227 
Q 3997 3413 4341 3413 
Q 4863 3413 5119 3089 
Q 5375 2766 5375 2113 
L 5375 331 
L 5894 331 
L 5894 0 
L 4300 0 
L 4300 331 
L 4800 331 
L 4800 2047 
Q 4800 2556 4650 2772 
Q 4500 2988 4153 2988 
Q 3769 2988 3567 2697 
Q 3366 2406 3366 1850 
L 3366 331 
L 3866 331 
L 3866 0 
L 2291 0 
L 2291 331 
L 2791 331 
L 2791 2069 
Q 2791 2566 2641 2777 
Q 2491 2988 2144 2988 
Q 1759 2988 1557 2697 
Q 1356 2406 1356 1850 
L 1356 331 
L 1856 331 
L 1856 0 
L 263 0 
L 263 331 
L 781 331 
L 781 2994 
L 231 2994 
L 231 3322 
L 1356 3322 
L 1356 2731 
Q 1516 3063 1762 3238 
Q 2009 3413 2322 3413 
Q 2709 3413 2968 3220 
Q 3228 3028 3316 2675 
z
" transform="scale(0.015625)"/>
       <path id="DejaVuSerif-65" d="M 3469 1600 
L 991 1600 
L 991 1575 
Q 991 903 1244 561 
Q 1497 219 1991 219 
Q 2369 219 2611 417 
Q 2853 616 2950 1006 
L 3413 1006 
Q 3275 459 2904 184 
Q 2534 -91 1931 -91 
Q 1203 -91 761 389 
Q 319 869 319 1663 
Q 319 2450 753 2931 
Q 1188 3413 1894 3413 
Q 2647 3413 3050 2948 
Q 3453 2484 3469 1600 
z
M 2791 1931 
Q 2772 2513 2545 2808 
Q 2319 3103 1894 3103 
Q 1497 3103 1269 2806 
Q 1041 2509 991 1931 
L 2791 1931 
z
" transform="scale(0.015625)"/>
       <path id="DejaVuSerif-20" transform="scale(0.015625)"/>
       <path id="DejaVuSerif-5b" d="M 550 4863 
L 2003 4863 
L 2003 4531 
L 1147 4531 
L 1147 -513 
L 2003 -513 
L 2003 -844 
L 550 -844 
L 550 4863 
z
" transform="scale(0.015625)"/>
       <path id="DejaVuSerif-73" d="M 359 184 
L 359 959 
L 691 959 
Q 703 588 923 403 
Q 1144 219 1575 219 
Q 1963 219 2166 364 
Q 2369 509 2369 788 
Q 2369 1006 2220 1140 
Q 2072 1275 1594 1428 
L 1178 1569 
Q 750 1706 558 1912 
Q 366 2119 366 2438 
Q 366 2894 700 3153 
Q 1034 3413 1625 3413 
Q 1888 3413 2178 3344 
Q 2469 3275 2778 3144 
L 2778 2419 
L 2447 2419 
Q 2434 2741 2221 2922 
Q 2009 3103 1644 3103 
Q 1281 3103 1095 2975 
Q 909 2847 909 2591 
Q 909 2381 1050 2254 
Q 1191 2128 1613 1997 
L 2069 1856 
Q 2541 1709 2748 1489 
Q 2956 1269 2956 922 
Q 2956 450 2595 179 
Q 2234 -91 1600 -91 
Q 1278 -91 972 -22 
Q 666 47 359 184 
z
" transform="scale(0.015625)"/>
       <path id="DejaVuSerif-5d" d="M 1947 4863 
L 1947 -844 
L 494 -844 
L 494 -513 
L 1350 -513 
L 1350 4531 
L 494 4531 
L 494 4863 
L 1947 4863 
z
" transform="scale(0.015625)"/>
      </defs>
      <use xlink:href="#DejaVuSerif-54"/>
      <use xlink:href="#DejaVuSerif-69" x="66.699219"/>
      <use xlink:href="#DejaVuSerif-6d" x="98.681641"/>
      <use xlink:href="#DejaVuSerif-65" x="193.505859"/>
      <use xlink:href="#DejaVuSerif-20" x="252.685547"/>
      <use xlink:href="#DejaVuSerif-5b" x="284.472656"/>
      <use xlink:href="#DejaVuSerif-73" x="323.486328"/>
      <use xlink:href="#DejaVuSerif-5d" x="374.804688"/>
     </g>
    </g>
   </g>
   <g id="matplotlib.axis_2">
    <g id="ytick_1">
     <g id="line2d_13">
      <path d="M 56.99 82.48265 
L 348.12 82.48265 
" clip-path="url(#pcb175320f9)" style="fill: none; stroke: #b0b0b0; stroke-width: 0.8; stroke-linecap: square"/>
     </g>
     <g id="line2d_14">
      <defs>
       <path id="m861f9b5734" d="M 0 0 
L -3.5 0 
" style="stroke: #000000; stroke-width: 0.8"/>
      </defs>
      <g>
       <use xlink:href="#m861f9b5734" x="56.99" y="82.48265" style="stroke: #000000; stroke-width: 0.8"/>
      </g>
     </g>
     <g id="text_8">
      <!-- −0.2 -->
      <g transform="translate(25.707187 86.281869) scale(0.1 -0.1)">
       <defs>
        <path id="DejaVuSerif-2212" d="M 678 2259 
L 4684 2259 
L 4684 1753 
L 678 1753 
L 678 2259 
z
" transform="scale(0.015625)"/>
        <path id="DejaVuSerif-2e" d="M 603 325 
Q 603 500 722 622 
Q 841 744 1019 744 
Q 1191 744 1312 622 
Q 1434 500 1434 325 
Q 1434 153 1312 31 
Q 1191 -91 1019 -91 
Q 841 -91 722 29 
Q 603 150 603 325 
z
" transform="scale(0.015625)"/>
       </defs>
       <use xlink:href="#DejaVuSerif-2212"/>
       <use xlink:href="#DejaVuSerif-30" x="83.789062"/>
       <use xlink:href="#DejaVuSerif-2e" x="147.412109"/>
       <use xlink:href="#DejaVuSerif-32" x="179.199219"/>
      </g>
     </g>
    </g>
    <g id="ytick_2">
     <g id="line2d_15">
      <path d="M 56.99 51.418469 
L 348.12 51.418469 
" clip-path="url(#pcb175320f9)" style="fill: none; stroke: #b0b0b0; stroke-width: 0.8; stroke-linecap: square"/>
     </g>
     <g id="line2d_16">
      <g>
       <use xlink:href="#m861f9b5734" x="56.99" y="51.418469" style="stroke: #000000; stroke-width: 0.8"/>
      </g>
     </g>
     <g id="text_9">
      <!-- 0.0 -->
      <g transform="translate(34.086875 55.217688) scale(0.1 -0.1)">
       <use xlink:href="#DejaVuSerif-30"/>
       <use xlink:href="#DejaVuSerif-2e" x="63.623047"/>
       <use xlink:href="#DejaVuSerif-30" x="95.410156"/>
      </g>
     </g>
    </g>
    <g id="ytick_3">
     <g id="line2d_17">
      <path d="M 56.99 20.354288 
L 348.12 20.354288 
" clip-path="url(#pcb175320f9)" style="fill: none; stroke: #b0b0b0; stroke-width: 0.8; stroke-linecap: square"/>
     </g>
     <g id="line2d_18">
      <g>
       <use xlink:href="#m861f9b5734" x="56.99" y="20.354288" style="stroke: #000000; stroke-width: 0.8"/>
      </g>
     </g>
     <g id="text_10">
      <!-- 0.2 -->
      <g transform="translate(34.086875 24.153507) scale(0.1 -0.1)">
       <use xlink:href="#DejaVuSerif-30"/>
       <use xlink:href="#DejaVuSerif-2e" x="63.623047"/>
       <use xlink:href="#DejaVuSerif-32" x="95.410156"/>
      </g>
     </g>
    </g>
    <g id="text_11">
     <!-- Error in x [m] -->
     <g transform="translate(19.419531 94.786797) rotate(-90) scale(0.11 -0.11)">
      <defs>
       <path id="DejaVuSerif-45" d="M 353 0 
L 353 331 
L 947 331 
L 947 4331 
L 353 4331 
L 353 4666 
L 4109 4666 
L 4109 3628 
L 3725 3628 
L 3725 4281 
L 1581 4281 
L 1581 2719 
L 3109 2719 
L 3109 3303 
L 3494 3303 
L 3494 1753 
L 3109 1753 
L 3109 2338 
L 1581 2338 
L 1581 384 
L 3775 384 
L 3775 1038 
L 4159 1038 
L 4159 0 
L 353 0 
z
" transform="scale(0.015625)"/>
       <path id="DejaVuSerif-72" d="M 3059 3328 
L 3059 2497 
L 2728 2497 
Q 2713 2744 2591 2866 
Q 2469 2988 2234 2988 
Q 1809 2988 1582 2694 
Q 1356 2400 1356 1850 
L 1356 331 
L 2022 331 
L 2022 0 
L 263 0 
L 263 331 
L 781 331 
L 781 2994 
L 231 2994 
L 231 3322 
L 1356 3322 
L 1356 2731 
Q 1525 3078 1790 3245 
Q 2056 3413 2438 3413 
Q 2578 3413 2733 3391 
Q 2888 3369 3059 3328 
z
" transform="scale(0.015625)"/>
       <path id="DejaVuSerif-6f" d="M 1925 219 
Q 2388 219 2623 584 
Q 2859 950 2859 1663 
Q 2859 2375 2623 2739 
Q 2388 3103 1925 3103 
Q 1463 3103 1227 2739 
Q 991 2375 991 1663 
Q 991 950 1228 584 
Q 1466 219 1925 219 
z
M 1925 -91 
Q 1200 -91 759 389 
Q 319 869 319 1663 
Q 319 2456 758 2934 
Q 1197 3413 1925 3413 
Q 2653 3413 3092 2934 
Q 3531 2456 3531 1663 
Q 3531 869 3092 389 
Q 2653 -91 1925 -91 
z
" transform="scale(0.015625)"/>
       <path id="DejaVuSerif-6e" d="M 263 0 
L 263 331 
L 781 331 
L 781 2988 
L 231 2988 
L 231 3322 
L 1356 3322 
L 1356 2731 
Q 1516 3069 1770 3241 
Q 2025 3413 2363 3413 
Q 2913 3413 3172 3097 
Q 3431 2781 3431 2113 
L 3431 331 
L 3944 331 
L 3944 0 
L 2356 0 
L 2356 331 
L 2853 331 
L 2853 1931 
Q 2853 2541 2703 2767 
Q 2553 2994 2175 2994 
Q 1775 2994 1565 2701 
Q 1356 2409 1356 1850 
L 1356 331 
L 1856 331 
L 1856 0 
L 263 0 
z
" transform="scale(0.015625)"/>
       <path id="DejaVuSerif-78" d="M 1863 2028 
L 2559 2988 
L 2113 2988 
L 2113 3322 
L 3391 3322 
L 3391 2988 
L 2950 2988 
L 2059 1759 
L 3097 331 
L 3531 331 
L 3531 0 
L 1997 0 
L 1997 331 
L 2419 331 
L 1697 1325 
L 972 331 
L 1403 331 
L 1403 0 
L 141 0 
L 141 331 
L 581 331 
L 1497 1594 
L 488 2988 
L 78 2988 
L 78 3322 
L 1563 3322 
L 1563 2988 
L 1166 2988 
L 1863 2028 
z
" transform="scale(0.015625)"/>
      </defs>
      <use xlink:href="#DejaVuSerif-45"/>
      <use xlink:href="#DejaVuSerif-72" x="72.998047"/>
      <use xlink:href="#DejaVuSerif-72" x="120.800781"/>
      <use xlink:href="#DejaVuSerif-6f" x="168.603516"/>
      <use xlink:href="#DejaVuSerif-72" x="228.808594"/>
      <use xlink:href="#DejaVuSerif-20" x="276.611328"/>
      <use xlink:href="#DejaVuSerif-69" x="308.398438"/>
      <use xlink:href="#DejaVuSerif-6e" x="340.380859"/>
      <use xlink:href="#DejaVuSerif-20" x="404.785156"/>
      <use xlink:href="#DejaVuSerif-78" x="436.572266"/>
      <use xlink:href="#DejaVuSerif-20" x="492.96875"/>
      <use xlink:href="#DejaVuSerif-5b" x="524.755859"/>
      <use xlink:href="#DejaVuSerif-6d" x="563.769531"/>
      <use xlink:href="#DejaVuSerif-5d" x="658.59375"/>
     </g>
    </g>
   </g>
   <g id="line2d_19">
    <path d="M 70.223182 96.910909 
L 70.752509 96.903143 
L 71.281836 96.43857 
L 71.811164 95.169845 
L 72.340491 92.857039 
L 72.869818 89.376726 
L 73.399145 84.724303 
L 74.4578 72.435575 
L 77.104436 37.804336 
L 77.633764 32.808471 
L 78.163091 29.048744 
L 78.692418 26.661669 
L 79.221745 25.721207 
L 79.751073 26.242439 
L 80.2804 28.184908 
L 80.809727 31.454114 
L 81.339055 35.901069 
L 82.397709 47.454591 
L 84.515018 72.410225 
L 85.044345 76.930207 
L 85.573673 80.107606 
L 86.103 81.724705 
L 86.632327 81.660708 
L 87.161655 79.902926 
L 87.690982 76.548877 
L 88.220309 71.799023 
L 89.278964 59.325919 
L 90.866945 38.839816 
L 91.9256 28.26831 
L 92.454927 24.752575 
L 92.984255 22.648712 
L 93.513582 22.049508 
L 94.042909 22.984041 
L 94.572236 25.417826 
L 95.101564 29.251451 
L 96.160218 40.384965 
L 98.806855 73.687854 
L 99.336182 78.223574 
L 99.865509 81.257005 
L 100.394836 82.593534 
L 100.924164 82.147825 
L 101.453491 79.950827 
L 101.982818 76.14701 
L 103.041473 64.782306 
L 105.688109 31.850469 
L 106.217436 27.370205 
L 106.746764 24.197951 
L 107.276091 22.470467 
L 107.805418 22.262977 
L 108.334745 23.590402 
L 108.864073 26.406469 
L 109.3934 30.60068 
L 110.452055 42.340532 
L 113.098691 75.810872 
L 113.628018 80.070972 
L 114.157345 82.732997 
L 114.686673 83.619798 
L 115.216 82.669131 
L 115.745327 79.93873 
L 116.274655 75.601402 
L 117.333309 63.278059 
L 119.450618 35.001812 
L 119.979945 29.439694 
L 120.509273 25.08613 
L 121.0386 22.131959 
L 121.567927 20.701052 
L 122.097255 20.852788 
L 122.626582 22.583873 
L 123.155909 25.828133 
L 123.685236 30.454415 
L 124.743891 42.990816 
L 126.8612 71.81561 
L 127.390527 77.46438 
L 127.919855 81.733554 
L 128.449182 84.353842 
L 128.978509 85.156301 
L 129.507836 84.085672 
L 130.037164 81.204631 
L 130.566491 76.688717 
L 131.625145 63.927806 
L 133.742455 34.516991 
L 134.801109 24.031144 
L 135.330436 20.837259 
L 135.859764 19.214177 
L 136.389091 19.230452 
L 136.918418 20.88768 
L 137.447745 24.120134 
L 137.977073 28.793268 
L 139.035727 41.574199 
L 141.153036 71.318805 
L 141.682364 77.264881 
L 142.211691 81.85226 
L 142.741018 84.805616 
L 143.270345 85.94627 
L 143.799673 85.205011 
L 144.329 82.626683 
L 144.858327 78.366365 
L 145.916982 65.893546 
L 148.563618 29.602562 
L 149.092945 24.52907 
L 149.622273 20.859314 
L 150.1516 18.755058 
L 150.680927 18.308285 
L 151.210255 19.540877 
L 151.739582 22.403915 
L 152.268909 26.776518 
L 153.327564 39.206002 
L 155.9742 75.779016 
L 156.503527 80.842937 
L 157.032855 84.345583 
L 157.562182 86.083126 
L 158.091509 85.954774 
L 158.620836 83.968955 
L 159.150164 80.24207 
L 159.679491 74.990083 
L 160.738145 61.177421 
L 162.855455 31.403294 
L 163.384782 25.776044 
L 163.914109 21.490817 
L 164.443436 18.744763 
L 164.972764 17.662795 
L 165.502091 18.295675 
L 166.031418 20.618838 
L 166.560745 24.531591 
L 167.090073 29.857286 
L 168.148727 43.680213 
L 170.266036 73.610883 
L 170.795364 79.19971 
L 171.324691 83.324747 
L 171.854018 85.753406 
L 172.383345 86.348981 
L 172.912673 85.078488 
L 173.442 82.014041 
L 173.971327 77.327922 
L 175.029982 64.209979 
L 177.147291 33.68607 
L 178.205945 22.573945 
L 178.735273 19.14589 
L 179.2646 17.379236 
L 179.793927 17.359139 
L 180.323255 19.089999 
L 180.852582 22.494446 
L 181.381909 27.413959 
L 182.440564 40.781228 
L 184.557873 71.358096 
L 185.0872 77.408858 
L 185.616527 82.086568 
L 186.145855 85.133577 
L 186.675182 86.382496 
L 187.204509 85.765079 
L 187.733836 83.315405 
L 188.263164 79.167573 
L 189.321818 66.76308 
L 191.968455 29.161259 
L 192.497782 23.705812 
L 193.027109 19.704808 
L 193.556436 17.356929 
L 194.085764 16.779042 
L 194.615091 18.002304 
L 195.144418 20.970589 
L 195.673745 25.541225 
L 196.7324 38.512136 
L 199.379036 75.959833 
L 199.908364 81.056341 
L 200.437691 84.57141 
L 200.967018 86.314866 
L 201.496345 86.192539 
L 202.025673 84.210524 
L 202.555 80.474601 
L 203.084327 75.184911 
L 204.142982 61.150779 
L 206.260291 30.400637 
L 206.789618 24.553269 
L 207.318945 20.127456 
L 207.848273 17.349113 
L 208.3776 16.359653 
L 208.906927 17.210806 
L 209.436255 19.862517 
L 209.965582 24.183735 
L 211.024236 36.884042 
L 213.670873 74.973694 
L 214.2002 80.375218 
L 214.729527 84.226945 
L 215.258855 86.322448 
L 215.788182 86.549485 
L 216.317509 84.894973 
L 216.846836 81.445497 
L 217.376164 76.383459 
L 218.434818 62.574599 
L 220.552127 31.293402 
L 221.081455 25.163216 
L 221.610782 20.428588 
L 222.140109 17.333935 
L 222.669436 16.037728 
L 223.198764 16.60658 
L 223.728091 19.012878 
L 224.257418 23.135612 
L 224.786745 28.764583 
L 225.8454 43.308462 
L 227.962709 74.208631 
L 228.492036 79.864193 
L 229.021364 83.996875 
L 229.550691 86.38595 
L 230.080018 86.90394 
L 230.609345 85.522388 
L 231.138673 82.313252 
L 231.668 77.445971 
L 232.726655 63.85151 
L 234.843964 32.230357 
L 235.373291 25.880687 
L 235.902618 20.891112 
L 236.431945 17.517203 
L 236.961273 15.929091 
L 237.4906 16.20554 
L 238.019927 18.331693 
L 238.549255 22.199898 
L 239.078582 27.613625 
L 240.137236 41.896398 
L 242.254545 73.157004 
L 242.783873 79.076444 
L 243.3132 83.519735 
L 243.842527 86.248831 
L 244.371855 87.117776 
L 244.901182 86.079863 
L 245.430509 83.190129 
L 245.959836 78.603182 
L 247.018491 65.405731 
L 249.665127 27.206768 
L 250.194455 21.959232 
L 250.723782 18.26743 
L 251.253109 16.311453 
L 251.782436 16.18354 
L 252.311764 17.886181 
L 252.841091 21.332861 
L 253.370418 26.351207 
L 254.429073 40.023376 
L 256.546382 71.308417 
L 257.075709 77.520478 
L 257.605036 82.347185 
L 258.134364 85.527454 
L 258.663691 86.889459 
L 259.193018 86.360005 
L 259.722345 83.968759 
L 260.251673 79.84719 
L 260.781 74.222007 
L 261.839655 59.764381 
L 263.427636 36.160828 
L 264.486291 23.930177 
L 265.015618 19.859012 
L 265.544945 17.4317 
L 266.074273 16.757559 
L 266.6036 17.862279 
L 267.132927 20.688528 
L 267.662255 25.098123 
L 268.720909 37.736782 
L 271.367545 75.038759 
L 271.896873 80.291302 
L 272.4262 84.011302 
L 272.955527 85.993889 
L 273.484855 86.130256 
L 274.014182 84.414473 
L 274.543509 80.944356 
L 275.072836 75.916173 
L 276.131491 62.387746 
L 278.2488 32.426106 
L 278.778127 26.638762 
L 279.307455 22.171247 
L 279.836782 19.228528 
L 280.366109 17.939546 
L 280.895436 18.356069 
L 281.424764 20.453232 
L 281.954091 24.130911 
L 282.483418 29.215909 
L 283.542073 42.575302 
L 285.659382 72.048611 
L 286.188709 77.692301 
L 286.718036 81.945485 
L 287.247364 84.567835 
L 287.776691 85.41066 
L 288.306018 84.426978 
L 288.835345 81.675086 
L 289.364673 77.315295 
L 290.423327 64.855969 
L 292.540636 35.474419 
L 293.599291 24.665814 
L 294.128618 21.262646 
L 294.657945 19.414296 
L 295.187273 19.196578 
L 295.7166 20.613991 
L 296.245927 23.600668 
L 296.775255 28.021311 
L 297.833909 40.287423 
L 300.480545 75.258925 
L 301.009873 79.944303 
L 301.5392 83.099393 
L 302.068527 84.538623 
L 302.597855 84.176934 
L 303.127182 82.036312 
L 303.656509 78.24479 
L 304.185836 73.027806 
L 305.244491 59.605353 
L 306.832473 37.851921 
L 307.891127 26.663802 
L 308.420455 22.934892 
L 308.949782 20.688061 
L 309.479109 20.016621 
L 310.008436 20.946249 
L 310.537764 23.435856 
L 311.067091 27.377719 
L 312.125745 38.854713 
L 314.772382 73.690792 
L 315.301709 78.661572 
L 315.831036 82.161441 
L 316.360364 83.976521 
L 316.889691 83.994146 
L 317.419018 82.211913 
L 317.948345 78.738447 
L 318.477673 73.785655 
L 319.536327 60.704805 
L 321.653636 32.796145 
L 322.182964 27.628013 
L 322.712291 23.745861 
L 323.241618 21.318217 
L 323.770945 20.446443 
L 324.300273 21.166361 
L 324.8296 23.449253 
L 325.358927 27.201397 
L 325.888255 32.262608 
L 326.946909 45.337458 
L 329.064218 73.436296 
L 329.593545 78.53969 
L 330.122873 82.164963 
L 330.6522 84.081784 
L 331.181527 84.16533 
L 331.710855 82.406839 
L 332.240182 78.91493 
L 332.769509 73.907417 
L 333.828164 60.653074 
L 334.886818 45.759465 
L 334.886818 45.759465 
" clip-path="url(#pcb175320f9)" style="fill: none; stroke: #1f77b4; stroke-width: 1.5; stroke-linecap: square"/>
   </g>
   <g id="line2d_20">
    <path d="M 70.223182 96.910909 
L 70.752509 96.903143 
L 71.281836 96.730008 
L 71.811164 96.269626 
L 72.340491 95.428747 
L 72.869818 94.142915 
L 73.399145 92.375953 
L 74.4578 87.387017 
L 75.516455 80.67182 
L 77.104436 68.529056 
L 79.221745 52.184034 
L 80.2804 45.449959 
L 81.339055 40.316996 
L 81.868382 38.436522 
L 82.397709 37.035418 
L 82.927036 36.116327 
L 83.456364 35.671671 
L 83.985691 35.684465 
L 84.515018 36.129155 
L 85.044345 36.972457 
L 85.573673 38.174195 
L 86.632327 41.463147 
L 88.220309 47.787198 
L 90.337618 56.342633 
L 91.396273 59.696754 
L 92.454927 62.008652 
L 92.984255 62.717343 
L 93.513582 63.115518 
L 94.042909 63.205075 
L 94.572236 62.996415 
L 95.101564 62.507767 
L 95.630891 61.764297 
L 96.689545 59.641607 
L 98.277527 55.445701 
L 100.394836 49.667115 
L 101.453491 47.340966 
L 102.512145 45.658207 
L 103.041473 45.093468 
L 103.5708 44.721758 
L 104.100127 44.543276 
L 104.629455 44.553487 
L 105.158782 44.74344 
L 105.688109 45.100161 
L 106.746764 46.244729 
L 107.805418 47.821883 
L 111.510709 53.914125 
L 112.569364 55.084389 
L 113.628018 55.785765 
L 114.157345 55.94856 
L 114.686673 55.986747 
L 115.745327 55.710971 
L 116.803982 55.029749 
L 117.862636 54.049921 
L 122.097255 49.690892 
L 123.155909 49.03918 
L 124.214564 48.692424 
L 125.273218 48.658381 
L 126.331873 48.913355 
L 127.390527 49.407238 
L 128.978509 50.440757 
L 131.625145 52.268422 
L 133.213127 53.03336 
L 134.271782 53.308453 
L 135.330436 53.378706 
L 136.389091 53.254053 
L 137.977073 52.768417 
L 140.623709 51.558701 
L 142.741018 50.692475 
L 144.329 50.308431 
L 145.916982 50.214209 
L 147.504964 50.392089 
L 149.622273 50.920929 
L 153.327564 51.931378 
L 154.915545 52.158508 
L 156.503527 52.200427 
L 158.620836 51.998378 
L 166.031418 50.914022 
L 168.148727 50.954721 
L 171.324691 51.273018 
L 175.029982 51.638872 
L 177.676618 51.694594 
L 180.852582 51.534141 
L 186.675182 51.187736 
L 190.380473 51.233751 
L 198.849709 51.486981 
L 206.789618 51.293657 
L 212.612218 51.314207 
L 222.140109 51.373352 
L 235.902618 51.32177 
L 250.194455 51.287857 
L 300.480545 51.290285 
L 334.886818 51.397089 
L 334.886818 51.397089 
" clip-path="url(#pcb175320f9)" style="fill: none; stroke: #ff7f0e; stroke-width: 1.5; stroke-linecap: square"/>
   </g>
   <g id="line2d_21">
    <path d="M 70.223182 96.910909 
L 71.281836 96.833695 
L 71.811164 96.66443 
L 72.340491 96.364811 
L 72.869818 95.911461 
L 73.399145 95.2877 
L 74.4578 93.492717 
L 75.516455 90.960905 
L 76.575109 87.746244 
L 78.163091 81.891441 
L 80.809727 70.670506 
L 82.927036 61.835529 
L 84.515018 56.004928 
L 86.103 51.193875 
L 87.161655 48.635323 
L 88.220309 46.616775 
L 89.278964 45.13156 
L 90.337618 44.154784 
L 91.396273 43.646826 
L 92.454927 43.556797 
L 93.513582 43.825831 
L 94.572236 44.390164 
L 95.630891 45.183966 
L 97.218873 46.662694 
L 101.982818 51.397229 
L 103.5708 52.606321 
L 105.158782 53.500603 
L 106.746764 54.063062 
L 108.334745 54.310027 
L 109.922727 54.282901 
L 111.510709 54.039182 
L 113.628018 53.489654 
L 120.509273 51.486921 
L 123.155909 51.056507 
L 125.802545 50.876519 
L 128.978509 50.914243 
L 143.270345 51.46841 
L 163.914109 51.334333 
L 177.147291 51.399848 
L 248.077145 51.131991 
L 274.014182 51.428308 
L 309.479109 51.821813 
L 332.240182 51.834982 
L 334.886818 51.822175 
L 334.886818 51.822175 
" clip-path="url(#pcb175320f9)" style="fill: none; stroke: #2ca02c; stroke-width: 1.5; stroke-linecap: square"/>
   </g>
   <g id="line2d_22">
    <path d="M 70.223182 96.910909 
L 71.811164 96.785498 
L 72.869818 96.461651 
L 73.928473 95.873938 
L 74.987127 94.989366 
L 76.045782 93.794504 
L 77.104436 92.291232 
L 78.692418 89.49039 
L 80.2804 86.108948 
L 82.397709 80.885018 
L 85.044345 73.611029 
L 91.396273 55.802279 
L 93.513582 50.508026 
L 95.630891 45.776204 
L 97.7482 41.686129 
L 99.336182 39.066112 
L 100.924164 36.836851 
L 102.512145 34.995243 
L 104.100127 33.530777 
L 105.688109 32.426757 
L 107.276091 31.661435 
L 108.864073 31.209054 
L 110.452055 31.040814 
L 112.040036 31.125759 
L 113.628018 31.431603 
L 115.745327 32.126238 
L 117.862636 33.07798 
L 120.509273 34.516696 
L 125.802545 37.740005 
L 130.037164 40.207663 
L 133.213127 41.813325 
L 136.389091 43.145794 
L 139.565055 44.193045 
L 142.741018 44.975613 
L 145.916982 45.53708 
L 150.1516 46.041414 
L 166.031418 47.63727 
L 170.266036 48.394691 
L 175.029982 49.483765 
L 180.323255 50.951258 
L 186.675182 52.960443 
L 204.142982 58.619572 
L 209.965582 60.209193 
L 215.258855 61.435632 
L 220.552127 62.430347 
L 225.8454 63.182534 
L 231.138673 63.690589 
L 236.431945 63.960487 
L 241.725218 64.004839 
L 247.547818 63.815614 
L 253.899745 63.362558 
L 260.781 62.64068 
L 269.779564 61.458862 
L 292.011309 58.433113 
L 300.480545 57.556038 
L 308.949782 56.899576 
L 319.536327 56.322444 
L 334.886818 55.55653 
L 334.886818 55.55653 
" clip-path="url(#pcb175320f9)" style="fill: none; stroke: #d62728; stroke-width: 1.5; stroke-linecap: square"/>
   </g>
   <g id="patch_3">
    <path d="M 56.99 100.96 
L 56.99 11.88 
" style="fill: none; stroke: #000000; stroke-width: 0.8; stroke-linejoin: miter; stroke-linecap: square"/>
   </g>
   <g id="patch_4">
    <path d="M 348.12 100.96 
L 348.12 11.88 
" style="fill: none; stroke: #000000; stroke-width: 0.8; stroke-linejoin: miter; stroke-linecap: square"/>
   </g>
   <g id="patch_5">
    <path d="M 56.99 100.96 
L 348.12 100.96 
" style="fill: none; stroke: #000000; stroke-width: 0.8; stroke-linejoin: miter; stroke-linecap: square"/>
   </g>
   <g id="patch_6">
    <path d="M 56.99 11.88 
L 348.12 11.88 
" style="fill: none; stroke: #000000; stroke-width: 0.8; stroke-linejoin: miter; stroke-linecap: square"/>
   </g>
   <g id="legend_1">
    <g id="patch_7">
     <path d="M 290.37 95.46 
L 340.42 95.46 
Q 342.62 95.46 342.62 93.26 
L 342.62 13.607969 
Q 342.62 11.407969 340.42 11.407969 
L 290.37 11.407969 
Q 288.17 11.407969 288.17 13.607969 
L 288.17 93.26 
Q 288.17 95.46 290.37 95.46 
z
" style="fill: #ffffff; opacity: 0.8; stroke: #cccccc; stroke-linejoin: miter"/>
    </g>
    <g id="text_12">
     <!-- $\mu$ -->
     <g transform="translate(311.875 24.16625) scale(0.11 -0.11)">
      <defs>
       <path id="DejaVuSans-Oblique-3bc" d="M -84 -1331 
L 856 3500 
L 1434 3500 
L 1009 1322 
Q 997 1256 987 1175 
Q 978 1094 978 1013 
Q 978 722 1161 565 
Q 1344 409 1684 409 
Q 2147 409 2431 671 
Q 2716 934 2816 1459 
L 3213 3500 
L 3788 3500 
L 3266 809 
Q 3253 750 3248 706 
Q 3244 663 3244 628 
Q 3244 531 3283 486 
Q 3322 441 3406 441 
Q 3438 441 3492 456 
Q 3547 472 3647 513 
L 3559 50 
Q 3422 -19 3297 -55 
Q 3172 -91 3053 -91 
Q 2847 -91 2730 40 
Q 2613 172 2613 403 
Q 2438 153 2195 31 
Q 1953 -91 1625 -91 
Q 1334 -91 1117 43 
Q 900 178 831 397 
L 494 -1331 
L -84 -1331 
z
" transform="scale(0.015625)"/>
      </defs>
      <use xlink:href="#DejaVuSans-Oblique-3bc" transform="translate(0 0.3125)"/>
     </g>
    </g>
    <g id="line2d_23">
     <path d="M 292.57 36.484531 
L 298.07 36.484531 
L 303.57 36.484531 
" style="fill: none; stroke: #1f77b4; stroke-width: 1.5; stroke-linecap: square"/>
    </g>
    <g id="text_13">
     <!-- $10^{-5}$ -->
     <g transform="translate(312.37 40.334531) scale(0.11 -0.11)">
      <defs>
       <path id="DejaVuSans-31" d="M 794 531 
L 1825 531 
L 1825 4091 
L 703 3866 
L 703 4441 
L 1819 4666 
L 2450 4666 
L 2450 531 
L 3481 531 
L 3481 0 
L 794 0 
L 794 531 
z
" transform="scale(0.015625)"/>
       <path id="DejaVuSans-30" d="M 2034 4250 
Q 1547 4250 1301 3770 
Q 1056 3291 1056 2328 
Q 1056 1369 1301 889 
Q 1547 409 2034 409 
Q 2525 409 2770 889 
Q 3016 1369 3016 2328 
Q 3016 3291 2770 3770 
Q 2525 4250 2034 4250 
z
M 2034 4750 
Q 2819 4750 3233 4129 
Q 3647 3509 3647 2328 
Q 3647 1150 3233 529 
Q 2819 -91 2034 -91 
Q 1250 -91 836 529 
Q 422 1150 422 2328 
Q 422 3509 836 4129 
Q 1250 4750 2034 4750 
z
" transform="scale(0.015625)"/>
       <path id="DejaVuSans-2212" d="M 678 2272 
L 4684 2272 
L 4684 1741 
L 678 1741 
L 678 2272 
z
" transform="scale(0.015625)"/>
       <path id="DejaVuSans-35" d="M 691 4666 
L 3169 4666 
L 3169 4134 
L 1269 4134 
L 1269 2991 
Q 1406 3038 1543 3061 
Q 1681 3084 1819 3084 
Q 2600 3084 3056 2656 
Q 3513 2228 3513 1497 
Q 3513 744 3044 326 
Q 2575 -91 1722 -91 
Q 1428 -91 1123 -41 
Q 819 9 494 109 
L 494 744 
Q 775 591 1075 516 
Q 1375 441 1709 441 
Q 2250 441 2565 725 
Q 2881 1009 2881 1497 
Q 2881 1984 2565 2268 
Q 2250 2553 1709 2553 
Q 1456 2553 1204 2497 
Q 953 2441 691 2322 
L 691 4666 
z
" transform="scale(0.015625)"/>
      </defs>
      <use xlink:href="#DejaVuSans-31" transform="translate(0 0.684375)"/>
      <use xlink:href="#DejaVuSans-30" transform="translate(63.623047 0.684375)"/>
      <use xlink:href="#DejaVuSans-2212" transform="translate(128.203125 38.965625) scale(0.7)"/>
      <use xlink:href="#DejaVuSans-35" transform="translate(186.855469 38.965625) scale(0.7)"/>
     </g>
    </g>
    <g id="line2d_24">
     <path d="M 292.57 52.630469 
L 298.07 52.630469 
L 303.57 52.630469 
" style="fill: none; stroke: #ff7f0e; stroke-width: 1.5; stroke-linecap: square"/>
    </g>
    <g id="text_14">
     <!-- $10^{-4}$ -->
     <g transform="translate(312.37 56.480469) scale(0.11 -0.11)">
      <defs>
       <path id="DejaVuSans-34" d="M 2419 4116 
L 825 1625 
L 2419 1625 
L 2419 4116 
z
M 2253 4666 
L 3047 4666 
L 3047 1625 
L 3713 1625 
L 3713 1100 
L 3047 1100 
L 3047 0 
L 2419 0 
L 2419 1100 
L 313 1100 
L 313 1709 
L 2253 4666 
z
" transform="scale(0.015625)"/>
      </defs>
      <use xlink:href="#DejaVuSans-31" transform="translate(0 0.684375)"/>
      <use xlink:href="#DejaVuSans-30" transform="translate(63.623047 0.684375)"/>
      <use xlink:href="#DejaVuSans-2212" transform="translate(128.203125 38.965625) scale(0.7)"/>
      <use xlink:href="#DejaVuSans-34" transform="translate(186.855469 38.965625) scale(0.7)"/>
     </g>
    </g>
    <g id="line2d_25">
     <path d="M 292.57 68.776406 
L 298.07 68.776406 
L 303.57 68.776406 
" style="fill: none; stroke: #2ca02c; stroke-width: 1.5; stroke-linecap: square"/>
    </g>
    <g id="text_15">
     <!-- $10^{-3}$ -->
     <g transform="translate(312.37 72.626406) scale(0.11 -0.11)">
      <defs>
       <path id="DejaVuSans-33" d="M 2597 2516 
Q 3050 2419 3304 2112 
Q 3559 1806 3559 1356 
Q 3559 666 3084 287 
Q 2609 -91 1734 -91 
Q 1441 -91 1130 -33 
Q 819 25 488 141 
L 488 750 
Q 750 597 1062 519 
Q 1375 441 1716 441 
Q 2309 441 2620 675 
Q 2931 909 2931 1356 
Q 2931 1769 2642 2001 
Q 2353 2234 1838 2234 
L 1294 2234 
L 1294 2753 
L 1863 2753 
Q 2328 2753 2575 2939 
Q 2822 3125 2822 3475 
Q 2822 3834 2567 4026 
Q 2313 4219 1838 4219 
Q 1578 4219 1281 4162 
Q 984 4106 628 3988 
L 628 4550 
Q 988 4650 1302 4700 
Q 1616 4750 1894 4750 
Q 2613 4750 3031 4423 
Q 3450 4097 3450 3541 
Q 3450 3153 3228 2886 
Q 3006 2619 2597 2516 
z
" transform="scale(0.015625)"/>
      </defs>
      <use xlink:href="#DejaVuSans-31" transform="translate(0 0.765625)"/>
      <use xlink:href="#DejaVuSans-30" transform="translate(63.623047 0.765625)"/>
      <use xlink:href="#DejaVuSans-2212" transform="translate(128.203125 39.046875) scale(0.7)"/>
      <use xlink:href="#DejaVuSans-33" transform="translate(186.855469 39.046875) scale(0.7)"/>
     </g>
    </g>
    <g id="line2d_26">
     <path d="M 292.57 84.922344 
L 298.07 84.922344 
L 303.57 84.922344 
" style="fill: none; stroke: #d62728; stroke-width: 1.5; stroke-linecap: square"/>
    </g>
    <g id="text_16">
     <!-- $10^{-2}$ -->
     <g transform="translate(312.37 88.772344) scale(0.11 -0.11)">
      <defs>
       <path id="DejaVuSans-32" d="M 1228 531 
L 3431 531 
L 3431 0 
L 469 0 
L 469 531 
Q 828 903 1448 1529 
Q 2069 2156 2228 2338 
Q 2531 2678 2651 2914 
Q 2772 3150 2772 3378 
Q 2772 3750 2511 3984 
Q 2250 4219 1831 4219 
Q 1534 4219 1204 4116 
Q 875 4013 500 3803 
L 500 4441 
Q 881 4594 1212 4672 
Q 1544 4750 1819 4750 
Q 2544 4750 2975 4387 
Q 3406 4025 3406 3419 
Q 3406 3131 3298 2873 
Q 3191 2616 2906 2266 
Q 2828 2175 2409 1742 
Q 1991 1309 1228 531 
z
" transform="scale(0.015625)"/>
      </defs>
      <use xlink:href="#DejaVuSans-31" transform="translate(0 0.765625)"/>
      <use xlink:href="#DejaVuSans-30" transform="translate(63.623047 0.765625)"/>
      <use xlink:href="#DejaVuSans-2212" transform="translate(128.203125 39.046875) scale(0.7)"/>
      <use xlink:href="#DejaVuSans-32" transform="translate(186.855469 39.046875) scale(0.7)"/>
     </g>
    </g>
   </g>
  </g>
 </g>
 <defs>
  <clipPath id="pcb175320f9">
   <rect x="56.99" y="11.88" width="291.13" height="89.08"/>
  </clipPath>
 </defs>
</svg>
