<?xml version="1.0" encoding="utf-8" standalone="no"?>
<!DOCTYPE svg PUBLIC "-//W3C//DTD SVG 1.1//EN"
  "http://www.w3.org/Graphics/SVG/1.1/DTD/svg11.dtd">
<svg xmlns:xlink="http://www.w3.org/1999/xlink" width="360pt" height="144pt" viewBox="0 0 360 144" xmlns="http://www.w3.org/2000/svg" version="1.1">
 <metadata>
  <rdf:RDF xmlns:dc="http://purl.org/dc/elements/1.1/" xmlns:cc="http://creativecommons.org/ns#" xmlns:rdf="http://www.w3.org/1999/02/22-rdf-syntax-ns#">
   <cc:Work>
    <dc:type rdf:resource="http://purl.org/dc/dcmitype/StillImage"/>
    <dc:date>2024-06-17T12:37:17.362640</dc:date>
    <dc:format>image/svg+xml</dc:format>
    <dc:creator>
     <cc:Agent>
      <dc:title>Matplotlib v3.9.0, https://matplotlib.org/</dc:title>
     </cc:Agent>
    </dc:creator>
   </cc:Work>
  </rdf:RDF>
 </metadata>
 <defs>
  <style type="text/css">*{stroke-linejoin: round; stroke-linecap: butt}</style>
 </defs>
 <g id="figure_1">
  <g id="patch_1">
   <path d="M 0 144 
L 360 144 
L 360 0 
L 0 0 
z
" style="fill: #ffffff"/>
  </g>
  <g id="axes_1">
   <g id="patch_2">
    <path d="M 56.99 100.96 
L 348.12 100.96 
L 348.12 11.88 
L 56.99 11.88 
z
" style="fill: #ffffff"/>
   </g>
   <g id="matplotlib.axis_1">
    <g id="xtick_1">
     <g id="line2d_1">
      <path d="M 70.223182 100.96 
L 70.223182 11.88 
" clip-path="url(#p99ea24daed)" style="fill: none; stroke: #b0b0b0; stroke-width: 0.8; stroke-linecap: square"/>
     </g>
     <g id="line2d_2">
      <defs>
       <path id="m6a8934b503" d="M 0 0 
L 0 3.5 
" style="stroke: #000000; stroke-width: 0.8"/>
      </defs>
      <g>
       <use xlink:href="#m6a8934b503" x="70.223182" y="100.96" style="stroke: #000000; stroke-width: 0.8"/>
      </g>
     </g>
     <g id="text_1">
      <!-- 0 -->
      <g transform="translate(67.041932 115.558437) scale(0.1 -0.1)">
       <defs>
        <path id="DejaVuSerif-30" d="M 2034 219 
Q 2513 219 2750 744 
Q 2988 1269 2988 2328 
Q 2988 3391 2750 3916 
Q 2513 4441 2034 4441 
Q 1556 4441 1318 3916 
Q 1081 3391 1081 2328 
Q 1081 1269 1318 744 
Q 1556 219 2034 219 
z
M 2034 -91 
Q 1275 -91 848 546 
Q 422 1184 422 2328 
Q 422 3475 848 4112 
Q 1275 4750 2034 4750 
Q 2797 4750 3222 4112 
Q 3647 3475 3647 2328 
Q 3647 1184 3222 546 
Q 2797 -91 2034 -91 
z
" transform="scale(0.015625)"/>
       </defs>
       <use xlink:href="#DejaVuSerif-30"/>
      </g>
     </g>
    </g>
    <g id="xtick_2">
     <g id="line2d_3">
      <path d="M 123.155909 100.96 
L 123.155909 11.88 
" clip-path="url(#p99ea24daed)" style="fill: none; stroke: #b0b0b0; stroke-width: 0.8; stroke-linecap: square"/>
     </g>
     <g id="line2d_4">
      <g>
       <use xlink:href="#m6a8934b503" x="123.155909" y="100.96" style="stroke: #000000; stroke-width: 0.8"/>
      </g>
     </g>
     <g id="text_2">
      <!-- 1 -->
      <g transform="translate(119.974659 115.558437) scale(0.1 -0.1)">
       <defs>
        <path id="DejaVuSerif-31" d="M 909 0 
L 909 331 
L 1722 331 
L 1722 4213 
L 781 3603 
L 781 4013 
L 1919 4750 
L 2350 4750 
L 2350 331 
L 3163 331 
L 3163 0 
L 909 0 
z
" transform="scale(0.015625)"/>
       </defs>
       <use xlink:href="#DejaVuSerif-31"/>
      </g>
     </g>
    </g>
    <g id="xtick_3">
     <g id="line2d_5">
      <path d="M 176.088636 100.96 
L 176.088636 11.88 
" clip-path="url(#p99ea24daed)" style="fill: none; stroke: #b0b0b0; stroke-width: 0.8; stroke-linecap: square"/>
     </g>
     <g id="line2d_6">
      <g>
       <use xlink:href="#m6a8934b503" x="176.088636" y="100.96" style="stroke: #000000; stroke-width: 0.8"/>
      </g>
     </g>
     <g id="text_3">
      <!-- 2 -->
      <g transform="translate(172.907386 115.558437) scale(0.1 -0.1)">
       <defs>
        <path id="DejaVuSerif-32" d="M 819 3553 
L 469 3553 
L 469 4384 
Q 803 4563 1142 4656 
Q 1481 4750 1806 4750 
Q 2534 4750 2956 4397 
Q 3378 4044 3378 3438 
Q 3378 2753 2422 1800 
Q 2347 1728 2309 1691 
L 1131 513 
L 3078 513 
L 3078 1088 
L 3444 1088 
L 3444 0 
L 434 0 
L 434 341 
L 1850 1753 
Q 2319 2222 2519 2614 
Q 2719 3006 2719 3438 
Q 2719 3909 2473 4175 
Q 2228 4441 1797 4441 
Q 1350 4441 1106 4219 
Q 863 3997 819 3553 
z
" transform="scale(0.015625)"/>
       </defs>
       <use xlink:href="#DejaVuSerif-32"/>
      </g>
     </g>
    </g>
    <g id="xtick_4">
     <g id="line2d_7">
      <path d="M 229.021364 100.96 
L 229.021364 11.88 
" clip-path="url(#p99ea24daed)" style="fill: none; stroke: #b0b0b0; stroke-width: 0.8; stroke-linecap: square"/>
     </g>
     <g id="line2d_8">
      <g>
       <use xlink:href="#m6a8934b503" x="229.021364" y="100.96" style="stroke: #000000; stroke-width: 0.8"/>
      </g>
     </g>
     <g id="text_4">
      <!-- 3 -->
      <g transform="translate(225.840114 115.558437) scale(0.1 -0.1)">
       <defs>
        <path id="DejaVuSerif-33" d="M 622 4469 
Q 988 4606 1323 4678 
Q 1659 4750 1953 4750 
Q 2638 4750 3022 4454 
Q 3406 4159 3406 3634 
Q 3406 3213 3140 2930 
Q 2875 2647 2388 2547 
Q 2963 2466 3280 2130 
Q 3597 1794 3597 1259 
Q 3597 606 3158 257 
Q 2719 -91 1894 -91 
Q 1528 -91 1179 -12 
Q 831 66 488 225 
L 488 1131 
L 838 1131 
Q 869 681 1141 450 
Q 1413 219 1906 219 
Q 2384 219 2661 495 
Q 2938 772 2938 1253 
Q 2938 1803 2653 2086 
Q 2369 2369 1819 2369 
L 1522 2369 
L 1522 2688 
L 1678 2688 
Q 2225 2688 2498 2914 
Q 2772 3141 2772 3597 
Q 2772 4006 2547 4223 
Q 2322 4441 1900 4441 
Q 1478 4441 1245 4241 
Q 1013 4041 972 3647 
L 622 3647 
L 622 4469 
z
" transform="scale(0.015625)"/>
       </defs>
       <use xlink:href="#DejaVuSerif-33"/>
      </g>
     </g>
    </g>
    <g id="xtick_5">
     <g id="line2d_9">
      <path d="M 281.954091 100.96 
L 281.954091 11.88 
" clip-path="url(#p99ea24daed)" style="fill: none; stroke: #b0b0b0; stroke-width: 0.8; stroke-linecap: square"/>
     </g>
     <g id="line2d_10">
      <g>
       <use xlink:href="#m6a8934b503" x="281.954091" y="100.96" style="stroke: #000000; stroke-width: 0.8"/>
      </g>
     </g>
     <g id="text_5">
      <!-- 4 -->
      <g transform="translate(278.772841 115.558437) scale(0.1 -0.1)">
       <defs>
        <path id="DejaVuSerif-34" d="M 2234 1581 
L 2234 4063 
L 641 1581 
L 2234 1581 
z
M 3609 0 
L 1484 0 
L 1484 331 
L 2234 331 
L 2234 1247 
L 197 1247 
L 197 1588 
L 2241 4750 
L 2859 4750 
L 2859 1581 
L 3750 1581 
L 3750 1247 
L 2859 1247 
L 2859 331 
L 3609 331 
L 3609 0 
z
" transform="scale(0.015625)"/>
       </defs>
       <use xlink:href="#DejaVuSerif-34"/>
      </g>
     </g>
    </g>
    <g id="xtick_6">
     <g id="line2d_11">
      <path d="M 334.886818 100.96 
L 334.886818 11.88 
" clip-path="url(#p99ea24daed)" style="fill: none; stroke: #b0b0b0; stroke-width: 0.8; stroke-linecap: square"/>
     </g>
     <g id="line2d_12">
      <g>
       <use xlink:href="#m6a8934b503" x="334.886818" y="100.96" style="stroke: #000000; stroke-width: 0.8"/>
      </g>
     </g>
     <g id="text_6">
      <!-- 5 -->
      <g transform="translate(331.705568 115.558437) scale(0.1 -0.1)">
       <defs>
        <path id="DejaVuSerif-35" d="M 3219 4666 
L 3219 4153 
L 1081 4153 
L 1081 2816 
Q 1244 2928 1461 2984 
Q 1678 3041 1947 3041 
Q 2703 3041 3140 2622 
Q 3578 2203 3578 1478 
Q 3578 738 3136 323 
Q 2694 -91 1894 -91 
Q 1572 -91 1234 -12 
Q 897 66 544 225 
L 544 1131 
L 897 1131 
Q 925 688 1179 453 
Q 1434 219 1894 219 
Q 2388 219 2653 544 
Q 2919 869 2919 1478 
Q 2919 2084 2655 2407 
Q 2391 2731 1894 2731 
Q 1613 2731 1398 2631 
Q 1184 2531 1019 2322 
L 750 2322 
L 750 4666 
L 3219 4666 
z
" transform="scale(0.015625)"/>
       </defs>
       <use xlink:href="#DejaVuSerif-35"/>
      </g>
     </g>
    </g>
    <g id="text_7">
     <!-- Time [s] -->
     <g transform="translate(179.794453 129.996406) scale(0.11 -0.11)">
      <defs>
       <path id="DejaVuSerif-54" d="M 1222 0 
L 1222 331 
L 1819 331 
L 1819 4294 
L 447 4294 
L 447 3566 
L 63 3566 
L 63 4666 
L 4206 4666 
L 4206 3566 
L 3822 3566 
L 3822 4294 
L 2450 4294 
L 2450 331 
L 3047 331 
L 3047 0 
L 1222 0 
z
" transform="scale(0.015625)"/>
       <path id="DejaVuSerif-69" d="M 622 4353 
Q 622 4497 726 4603 
Q 831 4709 978 4709 
Q 1122 4709 1226 4603 
Q 1331 4497 1331 4353 
Q 1331 4206 1228 4103 
Q 1125 4000 978 4000 
Q 831 4000 726 4103 
Q 622 4206 622 4353 
z
M 1356 331 
L 1900 331 
L 1900 0 
L 231 0 
L 231 331 
L 781 331 
L 781 2988 
L 231 2988 
L 231 3322 
L 1356 3322 
L 1356 331 
z
" transform="scale(0.015625)"/>
       <path id="DejaVuSerif-6d" d="M 3316 2675 
Q 3481 3041 3739 3227 
Q 3997 3413 4341 3413 
Q 4863 3413 5119 3089 
Q 5375 2766 5375 2113 
L 5375 331 
L 5894 331 
L 5894 0 
L 4300 0 
L 4300 331 
L 4800 331 
L 4800 2047 
Q 4800 2556 4650 2772 
Q 4500 2988 4153 2988 
Q 3769 2988 3567 2697 
Q 3366 2406 3366 1850 
L 3366 331 
L 3866 331 
L 3866 0 
L 2291 0 
L 2291 331 
L 2791 331 
L 2791 2069 
Q 2791 2566 2641 2777 
Q 2491 2988 2144 2988 
Q 1759 2988 1557 2697 
Q 1356 2406 1356 1850 
L 1356 331 
L 1856 331 
L 1856 0 
L 263 0 
L 263 331 
L 781 331 
L 781 2994 
L 231 2994 
L 231 3322 
L 1356 3322 
L 1356 2731 
Q 1516 3063 1762 3238 
Q 2009 3413 2322 3413 
Q 2709 3413 2968 3220 
Q 3228 3028 3316 2675 
z
" transform="scale(0.015625)"/>
       <path id="DejaVuSerif-65" d="M 3469 1600 
L 991 1600 
L 991 1575 
Q 991 903 1244 561 
Q 1497 219 1991 219 
Q 2369 219 2611 417 
Q 2853 616 2950 1006 
L 3413 1006 
Q 3275 459 2904 184 
Q 2534 -91 1931 -91 
Q 1203 -91 761 389 
Q 319 869 319 1663 
Q 319 2450 753 2931 
Q 1188 3413 1894 3413 
Q 2647 3413 3050 2948 
Q 3453 2484 3469 1600 
z
M 2791 1931 
Q 2772 2513 2545 2808 
Q 2319 3103 1894 3103 
Q 1497 3103 1269 2806 
Q 1041 2509 991 1931 
L 2791 1931 
z
" transform="scale(0.015625)"/>
       <path id="DejaVuSerif-20" transform="scale(0.015625)"/>
       <path id="DejaVuSerif-5b" d="M 550 4863 
L 2003 4863 
L 2003 4531 
L 1147 4531 
L 1147 -513 
L 2003 -513 
L 2003 -844 
L 550 -844 
L 550 4863 
z
" transform="scale(0.015625)"/>
       <path id="DejaVuSerif-73" d="M 359 184 
L 359 959 
L 691 959 
Q 703 588 923 403 
Q 1144 219 1575 219 
Q 1963 219 2166 364 
Q 2369 509 2369 788 
Q 2369 1006 2220 1140 
Q 2072 1275 1594 1428 
L 1178 1569 
Q 750 1706 558 1912 
Q 366 2119 366 2438 
Q 366 2894 700 3153 
Q 1034 3413 1625 3413 
Q 1888 3413 2178 3344 
Q 2469 3275 2778 3144 
L 2778 2419 
L 2447 2419 
Q 2434 2741 2221 2922 
Q 2009 3103 1644 3103 
Q 1281 3103 1095 2975 
Q 909 2847 909 2591 
Q 909 2381 1050 2254 
Q 1191 2128 1613 1997 
L 2069 1856 
Q 2541 1709 2748 1489 
Q 2956 1269 2956 922 
Q 2956 450 2595 179 
Q 2234 -91 1600 -91 
Q 1278 -91 972 -22 
Q 666 47 359 184 
z
" transform="scale(0.015625)"/>
       <path id="DejaVuSerif-5d" d="M 1947 4863 
L 1947 -844 
L 494 -844 
L 494 -513 
L 1350 -513 
L 1350 4531 
L 494 4531 
L 494 4863 
L 1947 4863 
z
" transform="scale(0.015625)"/>
      </defs>
      <use xlink:href="#DejaVuSerif-54"/>
      <use xlink:href="#DejaVuSerif-69" x="66.699219"/>
      <use xlink:href="#DejaVuSerif-6d" x="98.681641"/>
      <use xlink:href="#DejaVuSerif-65" x="193.505859"/>
      <use xlink:href="#DejaVuSerif-20" x="252.685547"/>
      <use xlink:href="#DejaVuSerif-5b" x="284.472656"/>
      <use xlink:href="#DejaVuSerif-73" x="323.486328"/>
      <use xlink:href="#DejaVuSerif-5d" x="374.804688"/>
     </g>
    </g>
   </g>
   <g id="matplotlib.axis_2">
    <g id="ytick_1">
     <g id="line2d_13">
      <path d="M 56.99 82.392493 
L 348.12 82.392493 
" clip-path="url(#p99ea24daed)" style="fill: none; stroke: #b0b0b0; stroke-width: 0.8; stroke-linecap: square"/>
     </g>
     <g id="line2d_14">
      <defs>
       <path id="m0a35e3a941" d="M 0 0 
L -3.5 0 
" style="stroke: #000000; stroke-width: 0.8"/>
      </defs>
      <g>
       <use xlink:href="#m0a35e3a941" x="56.99" y="82.392493" style="stroke: #000000; stroke-width: 0.8"/>
      </g>
     </g>
     <g id="text_8">
      <!-- −0.2 -->
      <g transform="translate(25.707187 86.191712) scale(0.1 -0.1)">
       <defs>
        <path id="DejaVuSerif-2212" d="M 678 2259 
L 4684 2259 
L 4684 1753 
L 678 1753 
L 678 2259 
z
" transform="scale(0.015625)"/>
        <path id="DejaVuSerif-2e" d="M 603 325 
Q 603 500 722 622 
Q 841 744 1019 744 
Q 1191 744 1312 622 
Q 1434 500 1434 325 
Q 1434 153 1312 31 
Q 1191 -91 1019 -91 
Q 841 -91 722 29 
Q 603 150 603 325 
z
" transform="scale(0.015625)"/>
       </defs>
       <use xlink:href="#DejaVuSerif-2212"/>
       <use xlink:href="#DejaVuSerif-30" x="83.789062"/>
       <use xlink:href="#DejaVuSerif-2e" x="147.412109"/>
       <use xlink:href="#DejaVuSerif-32" x="179.199219"/>
      </g>
     </g>
    </g>
    <g id="ytick_2">
     <g id="line2d_15">
      <path d="M 56.99 51.134203 
L 348.12 51.134203 
" clip-path="url(#p99ea24daed)" style="fill: none; stroke: #b0b0b0; stroke-width: 0.8; stroke-linecap: square"/>
     </g>
     <g id="line2d_16">
      <g>
       <use xlink:href="#m0a35e3a941" x="56.99" y="51.134203" style="stroke: #000000; stroke-width: 0.8"/>
      </g>
     </g>
     <g id="text_9">
      <!-- 0.0 -->
      <g transform="translate(34.086875 54.933421) scale(0.1 -0.1)">
       <use xlink:href="#DejaVuSerif-30"/>
       <use xlink:href="#DejaVuSerif-2e" x="63.623047"/>
       <use xlink:href="#DejaVuSerif-30" x="95.410156"/>
      </g>
     </g>
    </g>
    <g id="ytick_3">
     <g id="line2d_17">
      <path d="M 56.99 19.875912 
L 348.12 19.875912 
" clip-path="url(#p99ea24daed)" style="fill: none; stroke: #b0b0b0; stroke-width: 0.8; stroke-linecap: square"/>
     </g>
     <g id="line2d_18">
      <g>
       <use xlink:href="#m0a35e3a941" x="56.99" y="19.875912" style="stroke: #000000; stroke-width: 0.8"/>
      </g>
     </g>
     <g id="text_10">
      <!-- 0.2 -->
      <g transform="translate(34.086875 23.675131) scale(0.1 -0.1)">
       <use xlink:href="#DejaVuSerif-30"/>
       <use xlink:href="#DejaVuSerif-2e" x="63.623047"/>
       <use xlink:href="#DejaVuSerif-32" x="95.410156"/>
      </g>
     </g>
    </g>
    <g id="text_11">
     <!-- Error in x [m] -->
     <g transform="translate(19.419531 94.786797) rotate(-90) scale(0.11 -0.11)">
      <defs>
       <path id="DejaVuSerif-45" d="M 353 0 
L 353 331 
L 947 331 
L 947 4331 
L 353 4331 
L 353 4666 
L 4109 4666 
L 4109 3628 
L 3725 3628 
L 3725 4281 
L 1581 4281 
L 1581 2719 
L 3109 2719 
L 3109 3303 
L 3494 3303 
L 3494 1753 
L 3109 1753 
L 3109 2338 
L 1581 2338 
L 1581 384 
L 3775 384 
L 3775 1038 
L 4159 1038 
L 4159 0 
L 353 0 
z
" transform="scale(0.015625)"/>
       <path id="DejaVuSerif-72" d="M 3059 3328 
L 3059 2497 
L 2728 2497 
Q 2713 2744 2591 2866 
Q 2469 2988 2234 2988 
Q 1809 2988 1582 2694 
Q 1356 2400 1356 1850 
L 1356 331 
L 2022 331 
L 2022 0 
L 263 0 
L 263 331 
L 781 331 
L 781 2994 
L 231 2994 
L 231 3322 
L 1356 3322 
L 1356 2731 
Q 1525 3078 1790 3245 
Q 2056 3413 2438 3413 
Q 2578 3413 2733 3391 
Q 2888 3369 3059 3328 
z
" transform="scale(0.015625)"/>
       <path id="DejaVuSerif-6f" d="M 1925 219 
Q 2388 219 2623 584 
Q 2859 950 2859 1663 
Q 2859 2375 2623 2739 
Q 2388 3103 1925 3103 
Q 1463 3103 1227 2739 
Q 991 2375 991 1663 
Q 991 950 1228 584 
Q 1466 219 1925 219 
z
M 1925 -91 
Q 1200 -91 759 389 
Q 319 869 319 1663 
Q 319 2456 758 2934 
Q 1197 3413 1925 3413 
Q 2653 3413 3092 2934 
Q 3531 2456 3531 1663 
Q 3531 869 3092 389 
Q 2653 -91 1925 -91 
z
" transform="scale(0.015625)"/>
       <path id="DejaVuSerif-6e" d="M 263 0 
L 263 331 
L 781 331 
L 781 2988 
L 231 2988 
L 231 3322 
L 1356 3322 
L 1356 2731 
Q 1516 3069 1770 3241 
Q 2025 3413 2363 3413 
Q 2913 3413 3172 3097 
Q 3431 2781 3431 2113 
L 3431 331 
L 3944 331 
L 3944 0 
L 2356 0 
L 2356 331 
L 2853 331 
L 2853 1931 
Q 2853 2541 2703 2767 
Q 2553 2994 2175 2994 
Q 1775 2994 1565 2701 
Q 1356 2409 1356 1850 
L 1356 331 
L 1856 331 
L 1856 0 
L 263 0 
z
" transform="scale(0.015625)"/>
       <path id="DejaVuSerif-78" d="M 1863 2028 
L 2559 2988 
L 2113 2988 
L 2113 3322 
L 3391 3322 
L 3391 2988 
L 2950 2988 
L 2059 1759 
L 3097 331 
L 3531 331 
L 3531 0 
L 1997 0 
L 1997 331 
L 2419 331 
L 1697 1325 
L 972 331 
L 1403 331 
L 1403 0 
L 141 0 
L 141 331 
L 581 331 
L 1497 1594 
L 488 2988 
L 78 2988 
L 78 3322 
L 1563 3322 
L 1563 2988 
L 1166 2988 
L 1863 2028 
z
" transform="scale(0.015625)"/>
      </defs>
      <use xlink:href="#DejaVuSerif-45"/>
      <use xlink:href="#DejaVuSerif-72" x="72.998047"/>
      <use xlink:href="#DejaVuSerif-72" x="120.800781"/>
      <use xlink:href="#DejaVuSerif-6f" x="168.603516"/>
      <use xlink:href="#DejaVuSerif-72" x="228.808594"/>
      <use xlink:href="#DejaVuSerif-20" x="276.611328"/>
      <use xlink:href="#DejaVuSerif-69" x="308.398438"/>
      <use xlink:href="#DejaVuSerif-6e" x="340.380859"/>
      <use xlink:href="#DejaVuSerif-20" x="404.785156"/>
      <use xlink:href="#DejaVuSerif-78" x="436.572266"/>
      <use xlink:href="#DejaVuSerif-20" x="492.96875"/>
      <use xlink:href="#DejaVuSerif-5b" x="524.755859"/>
      <use xlink:href="#DejaVuSerif-6d" x="563.769531"/>
      <use xlink:href="#DejaVuSerif-5d" x="658.59375"/>
     </g>
    </g>
   </g>
   <g id="line2d_19">
    <path d="M 70.223182 96.910909 
L 70.752509 96.903095 
L 71.281836 96.435611 
L 71.811164 95.158934 
L 72.340491 92.831629 
L 72.869818 89.329488 
L 73.399145 84.647868 
L 74.4578 72.281897 
L 77.104436 37.431107 
L 77.633764 32.402988 
L 78.163091 28.618632 
L 78.692418 26.215448 
L 79.221745 25.267906 
L 79.751073 25.791235 
L 80.2804 27.744775 
L 80.809727 31.033478 
L 81.339055 35.507456 
L 82.397709 47.132175 
L 84.515018 72.243566 
L 85.044345 76.792013 
L 85.573673 79.989574 
L 86.103 81.617171 
L 86.632327 81.553259 
L 87.161655 79.785072 
L 87.690982 76.410737 
L 88.220309 71.631965 
L 89.278964 59.082649 
L 90.866945 38.471281 
L 91.9256 27.835319 
L 92.454927 24.298259 
L 92.984255 22.181746 
L 93.513582 21.579113 
L 94.042909 22.519588 
L 94.572236 24.968449 
L 95.101564 28.825655 
L 96.160218 40.027369 
L 98.806855 73.535723 
L 99.336182 78.100409 
L 99.865509 81.154001 
L 100.394836 82.500646 
L 100.924164 82.054376 
L 101.453491 79.846163 
L 101.982818 76.021147 
L 103.041473 64.589675 
L 105.688109 31.448484 
L 106.217436 26.936907 
L 106.746764 23.740977 
L 107.276091 21.998499 
L 107.805418 21.785338 
L 108.334745 23.116657 
L 108.864073 25.946018 
L 109.3934 30.162358 
L 110.452055 41.968746 
L 113.098691 75.651388 
L 113.628018 79.944281 
L 114.157345 82.631084 
L 114.686673 83.533248 
L 115.216 82.587647 
L 115.745327 79.851711 
L 116.274655 75.498536 
L 117.333309 63.116576 
L 119.450618 34.66729 
L 119.979945 29.063509 
L 120.509273 24.673286 
L 121.0386 21.689188 
L 121.567927 20.236428 
L 122.097255 20.375312 
L 122.626582 22.103051 
L 123.155909 25.35357 
L 123.685236 29.995419 
L 124.743891 42.587827 
L 126.8612 71.583941 
L 127.390527 77.276432 
L 127.919855 81.585223 
L 128.449182 84.2389 
L 128.978509 85.066658 
L 129.507836 84.011754 
L 130.037164 81.135867 
L 130.566491 76.614094 
L 131.625145 63.809757 
L 133.742455 34.226885 
L 134.801109 23.649478 
L 135.330436 20.416932 
L 135.859764 18.762471 
L 136.389091 18.756009 
L 136.918418 20.400044 
L 137.447745 23.62931 
L 137.977073 28.309319 
L 139.035727 41.132532 
L 141.153036 71.044217 
L 141.682364 77.038731 
L 142.211691 81.672575 
L 142.741018 84.66795 
L 143.270345 85.843841 
L 143.799673 85.128987 
L 144.329 82.566614 
L 144.858327 78.310752 
L 145.916982 65.811487 
L 148.563618 29.308914 
L 149.092945 24.186926 
L 149.622273 20.472662 
L 150.1516 18.32999 
L 150.680927 17.852568 
L 151.210255 19.063509 
L 151.739582 21.914696 
L 152.268909 26.285653 
L 153.327564 38.742217 
L 155.9742 75.515959 
L 156.503527 80.628103 
L 157.032855 84.175844 
L 157.562182 85.952796 
L 158.091509 85.855894 
L 158.620836 83.891755 
L 159.150164 80.175566 
L 159.679491 74.922771 
L 160.738145 61.075525 
L 162.855455 31.14445 
L 163.384782 25.472606 
L 163.914109 21.145091 
L 164.443436 18.360865 
L 164.972764 17.246327 
L 165.502091 17.853434 
L 166.031418 20.158565 
L 166.560745 24.061751 
L 167.090073 29.38686 
L 168.148727 43.236276 
L 170.266036 73.312243 
L 170.795364 78.946923 
L 171.324691 83.116645 
L 171.854018 85.58613 
L 172.383345 86.216241 
L 172.912673 84.972037 
L 173.442 81.924305 
L 173.971327 77.244717 
L 175.029982 64.110298 
L 177.147291 33.469222 
L 178.205945 22.281333 
L 178.735273 18.815831 
L 179.2646 17.013445 
L 179.793927 16.960377 
L 180.323255 18.662179 
L 180.852582 22.042801 
L 181.381909 26.945175 
L 182.440564 40.30404 
L 184.557873 70.986126 
L 185.0872 77.083954 
L 185.616527 81.812306 
L 186.145855 84.910358 
L 186.675182 86.207607 
L 187.204509 85.633067 
L 187.733836 83.218681 
L 188.263164 79.097131 
L 189.321818 66.715963 
L 191.968455 29.017493 
L 192.497782 23.520801 
L 193.027109 19.472684 
L 193.556436 17.072792 
L 194.085764 16.439432 
L 194.615091 17.605817 
L 195.144418 20.518555 
L 195.673745 25.038313 
L 196.7324 37.936372 
L 199.379036 75.48878 
L 199.908364 80.653603 
L 200.437691 84.245292 
L 200.967018 86.069017 
L 201.496345 86.026087 
L 202.025673 84.11858 
L 202.555 80.448965 
L 203.084327 75.214813 
L 204.142982 61.252255 
L 206.260291 30.457368 
L 206.789618 24.556532 
L 207.318945 20.060856 
L 207.848273 17.197789 
L 208.3776 16.111365 
L 208.906927 16.857172 
L 209.436255 19.400285 
L 209.965582 23.615904 
L 211.024236 36.142144 
L 213.670873 74.265434 
L 214.2002 79.762753 
L 214.729527 83.730713 
L 215.258855 85.955929 
L 215.788182 86.318922 
L 216.317509 84.799647 
L 216.846836 81.478347 
L 217.376164 76.531836 
L 218.434818 62.897349 
L 220.552127 31.643045 
L 221.081455 25.441423 
L 221.610782 20.604483 
L 222.140109 17.379374 
L 222.669436 15.929091 
L 223.198764 16.326672 
L 223.728091 18.552801 
L 224.257418 22.496383 
L 224.786745 27.958235 
L 225.8454 42.248455 
L 227.962709 73.175787 
L 228.492036 78.957011 
L 229.021364 83.25201 
L 229.550691 85.830456 
L 230.080018 86.554335 
L 230.609345 85.384507 
L 231.138673 82.38263 
L 231.668 77.70853 
L 232.726655 64.423943 
L 235.373291 26.499645 
L 235.902618 21.374411 
L 236.431945 17.82136 
L 236.961273 16.01744 
L 237.4906 16.0507 
L 238.019927 17.917913 
L 238.549255 21.525068 
L 239.078582 26.690666 
L 240.137236 40.57704 
L 242.254545 71.754979 
L 242.783873 77.820541 
L 243.3132 82.46521 
L 243.842527 85.439042 
L 244.371855 86.582326 
L 244.901182 85.833749 
L 245.430509 83.233669 
L 245.959836 78.922504 
L 247.018491 66.183061 
L 249.665127 28.160746 
L 250.194455 22.754937 
L 250.723782 18.847666 
L 251.253109 16.628036 
L 251.782436 16.199979 
L 252.311764 17.580118 
L 252.841091 20.698151 
L 253.370418 25.399396 
L 254.429073 38.54443 
L 257.075709 75.952806 
L 257.605036 80.996278 
L 258.134364 84.452184 
L 258.663691 86.132878 
L 259.193018 85.947549 
L 259.722345 83.907487 
L 260.251673 80.125908 
L 260.781 74.812157 
L 261.839655 60.831049 
L 263.956964 30.626918 
L 264.486291 24.941568 
L 265.015618 20.643683 
L 265.544945 17.935297 
L 266.074273 16.938702 
L 266.6036 17.694618 
L 267.132927 20.162451 
L 267.662255 24.222026 
L 268.720909 36.259895 
L 271.367545 73.305853 
L 271.896873 78.760701 
L 272.4262 82.751792 
L 272.955527 85.058425 
L 273.484855 85.553224 
L 274.014182 84.210146 
L 274.543509 81.106493 
L 275.072836 76.41872 
L 276.131491 63.423461 
L 278.2488 33.646416 
L 278.778127 27.710397 
L 279.307455 23.028391 
L 279.836782 19.816563 
L 280.366109 18.216923 
L 280.895436 18.295721 
L 281.424764 20.04369 
L 281.954091 23.377152 
L 282.483418 28.139854 
L 283.542073 40.986824 
L 285.659382 70.310406 
L 286.188709 76.124582 
L 286.718036 80.619993 
L 287.247364 83.542234 
L 287.776691 84.725085 
L 288.306018 84.10177 
L 288.835345 81.709794 
L 289.364673 77.688966 
L 290.423327 65.771743 
L 293.069964 30.495777 
L 293.599291 25.492562 
L 294.128618 21.844554 
L 294.657945 19.712024 
L 295.187273 19.184125 
L 295.7166 20.279251 
L 296.245927 22.945869 
L 296.775255 27.06336 
L 297.833909 38.832585 
L 300.480545 73.723728 
L 301.009873 78.620321 
L 301.5392 82.046266 
L 302.068527 83.800245 
L 302.597855 83.778532 
L 303.127182 81.982796 
L 303.656509 78.52049 
L 304.185836 73.597652 
L 305.244491 60.594723 
L 307.3618 32.667606 
L 307.891127 27.440275 
L 308.420455 23.483394 
L 308.949782 20.970974 
L 309.479109 20.008838 
L 310.008436 20.635304 
L 310.537764 22.822043 
L 311.067091 26.474331 
L 311.596418 31.430983 
L 312.655073 44.288472 
L 314.772382 72.157646 
L 315.301709 77.323942 
L 315.831036 81.082563 
L 316.360364 83.20503 
L 316.889691 83.560398 
L 317.419018 82.125585 
L 317.948345 78.987655 
L 318.477673 74.337705 
L 319.536327 61.694683 
L 321.653636 33.763535 
L 322.182964 28.414263 
L 322.712291 24.299862 
L 323.241618 21.601354 
L 323.770945 20.432741 
L 324.300273 20.842308 
L 324.8296 22.813707 
L 325.358927 26.265819 
L 325.888255 31.051591 
L 326.946909 43.70409 
L 329.064218 71.799566 
L 329.593545 77.107793 
L 330.122873 81.009971 
L 330.6522 83.260619 
L 331.181527 83.715051 
L 331.710855 82.341349 
L 332.240182 79.223461 
L 332.769509 74.555038 
L 333.828164 61.79201 
L 334.886818 47.055666 
L 334.886818 47.055666 
" clip-path="url(#p99ea24daed)" style="fill: none; stroke: #1f77b4; stroke-width: 1.5; stroke-linecap: square"/>
   </g>
   <g id="line2d_20">
    <path d="M 70.223182 96.910909 
L 70.752509 96.903095 
L 71.281836 96.728675 
L 71.811164 96.264853 
L 72.340491 95.417693 
L 72.869818 94.122286 
L 73.399145 92.342234 
L 74.4578 87.316791 
L 75.516455 80.553543 
L 77.104436 68.327435 
L 79.221745 51.87996 
L 80.2804 45.10903 
L 81.339055 39.952387 
L 81.868382 38.065257 
L 82.397709 36.660886 
L 82.927036 35.741763 
L 83.456364 35.300077 
L 83.985691 35.31855 
L 84.515018 35.771276 
L 85.044345 36.624574 
L 85.573673 37.837834 
L 86.632327 41.152541 
L 88.220309 47.514805 
L 90.337618 56.10237 
L 91.396273 59.459252 
L 92.454927 61.764131 
L 92.984255 62.4659 
L 93.513582 62.855164 
L 94.042909 62.934119 
L 94.572236 62.71351 
L 95.101564 62.211949 
L 95.630891 61.455003 
L 96.689545 59.305303 
L 98.277527 55.074397 
L 100.394836 49.271169 
L 101.453491 46.944549 
L 102.512145 45.268996 
L 103.041473 44.710397 
L 103.5708 44.346253 
L 104.100127 44.176521 
L 104.629455 44.196397 
L 105.158782 44.396642 
L 105.688109 44.763986 
L 106.746764 45.929592 
L 107.805418 47.52561 
L 111.510709 53.644092 
L 112.569364 54.808608 
L 113.628018 55.499692 
L 114.157345 55.65614 
L 114.686673 55.687489 
L 115.745327 55.397528 
L 116.803982 54.703006 
L 117.862636 53.712404 
L 121.567927 49.777093 
L 122.626582 48.994575 
L 123.685236 48.503416 
L 124.743891 48.326948 
L 125.802545 48.45537 
L 126.8612 48.84968 
L 128.449182 49.799825 
L 132.154473 52.297025 
L 133.213127 52.758786 
L 134.271782 53.02558 
L 135.330436 53.086771 
L 136.389091 52.953409 
L 137.977073 52.457548 
L 140.623709 51.243707 
L 142.741018 50.386796 
L 144.329 50.014897 
L 145.916982 49.934401 
L 147.504964 50.124853 
L 149.622273 50.664885 
L 153.327564 51.674636 
L 154.915545 51.8956 
L 156.503527 51.930473 
L 158.620836 51.721073 
L 165.502091 50.671662 
L 167.6194 50.673856 
L 170.266036 50.904251 
L 175.559309 51.420684 
L 178.205945 51.431127 
L 182.440564 51.160103 
L 186.675182 50.944869 
L 190.380473 50.999766 
L 198.849709 51.251544 
L 216.846836 51.152819 
L 224.786745 51.109776 
L 234.843964 51.087052 
L 249.1358 51.055969 
L 291.481982 51.016915 
L 334.886818 51.100146 
L 334.886818 51.100146 
" clip-path="url(#p99ea24daed)" style="fill: none; stroke: #ff7f0e; stroke-width: 1.5; stroke-linecap: square"/>
   </g>
   <g id="line2d_21">
    <path d="M 70.223182 96.910909 
L 71.281836 96.832823 
L 71.811164 96.661405 
L 72.340491 96.357873 
L 72.869818 95.898537 
L 73.399145 95.266519 
L 74.4578 93.447967 
L 75.516455 90.883752 
L 76.575109 87.629675 
L 78.163091 81.708809 
L 80.809727 70.386696 
L 82.927036 61.503897 
L 84.515018 55.664701 
L 86.103 50.868592 
L 87.161655 48.331532 
L 88.220309 46.341982 
L 89.278964 44.891525 
L 90.337618 43.953422 
L 91.396273 43.486223 
L 92.454927 43.437297 
L 93.513582 43.74618 
L 94.572236 44.347685 
L 96.160218 45.652057 
L 98.277527 47.801697 
L 100.924164 50.513829 
L 102.512145 51.89676 
L 104.100127 52.985018 
L 105.688109 53.738104 
L 107.276091 54.154071 
L 108.864073 54.262066 
L 110.452055 54.113366 
L 112.569364 53.627348 
L 116.274655 52.428291 
L 119.450618 51.490851 
L 122.097255 50.967334 
L 124.743891 50.715424 
L 127.390527 50.69353 
L 131.625145 50.931971 
L 137.977073 51.303263 
L 142.741018 51.33116 
L 151.210255 51.072774 
L 159.150164 50.938086 
L 214.2002 50.637566 
L 245.959836 50.589911 
L 275.072836 50.769858 
L 334.886818 51.379742 
L 334.886818 51.379742 
" clip-path="url(#p99ea24daed)" style="fill: none; stroke: #2ca02c; stroke-width: 1.5; stroke-linecap: square"/>
   </g>
   <g id="line2d_22">
    <path d="M 70.223182 96.910909 
L 71.811164 96.785079 
L 72.869818 96.461054 
L 73.928473 95.874939 
L 74.987127 94.996375 
L 76.045782 93.815467 
L 77.104436 92.338268 
L 78.692418 89.609098 
L 80.2804 86.351577 
L 82.397709 81.395728 
L 86.103 71.893378 
L 89.808291 62.576158 
L 91.9256 57.756404 
L 94.042909 53.465742 
L 96.160218 49.774594 
L 97.7482 47.418168 
L 99.336182 45.414906 
L 100.924164 43.755255 
L 102.512145 42.422711 
L 104.100127 41.395477 
L 105.688109 40.64793 
L 107.276091 40.15193 
L 108.864073 39.877947 
L 110.452055 39.79603 
L 112.569364 39.934632 
L 114.686673 40.295404 
L 117.333309 40.966 
L 121.567927 42.310232 
L 128.978509 44.695832 
L 133.213127 45.818082 
L 137.447745 46.717701 
L 142.211691 47.505113 
L 149.092945 48.385984 
L 168.678055 50.76509 
L 185.616527 52.923369 
L 194.085764 53.748607 
L 202.025673 54.294858 
L 210.494909 54.647074 
L 220.0228 54.817176 
L 233.255982 54.807933 
L 263.956964 54.703213 
L 276.131491 54.938751 
L 289.894 55.440288 
L 308.949782 56.130133 
L 317.419018 56.204521 
L 324.8296 56.057863 
L 331.710855 55.712242 
L 334.886818 55.48087 
L 334.886818 55.48087 
" clip-path="url(#p99ea24daed)" style="fill: none; stroke: #d62728; stroke-width: 1.5; stroke-linecap: square"/>
   </g>
   <g id="patch_3">
    <path d="M 56.99 100.96 
L 56.99 11.88 
" style="fill: none; stroke: #000000; stroke-width: 0.8; stroke-linejoin: miter; stroke-linecap: square"/>
   </g>
   <g id="patch_4">
    <path d="M 348.12 100.96 
L 348.12 11.88 
" style="fill: none; stroke: #000000; stroke-width: 0.8; stroke-linejoin: miter; stroke-linecap: square"/>
   </g>
   <g id="patch_5">
    <path d="M 56.99 100.96 
L 348.12 100.96 
" style="fill: none; stroke: #000000; stroke-width: 0.8; stroke-linejoin: miter; stroke-linecap: square"/>
   </g>
   <g id="patch_6">
    <path d="M 56.99 11.88 
L 348.12 11.88 
" style="fill: none; stroke: #000000; stroke-width: 0.8; stroke-linejoin: miter; stroke-linecap: square"/>
   </g>
   <g id="legend_1">
    <g id="patch_7">
     <path d="M 290.37 95.46 
L 340.42 95.46 
Q 342.62 95.46 342.62 93.26 
L 342.62 13.607969 
Q 342.62 11.407969 340.42 11.407969 
L 290.37 11.407969 
Q 288.17 11.407969 288.17 13.607969 
L 288.17 93.26 
Q 288.17 95.46 290.37 95.46 
z
" style="fill: #ffffff; opacity: 0.8; stroke: #cccccc; stroke-linejoin: miter"/>
    </g>
    <g id="text_12">
     <!-- $\mu$ -->
     <g transform="translate(311.875 24.16625) scale(0.11 -0.11)">
      <defs>
       <path id="DejaVuSans-Oblique-3bc" d="M -84 -1331 
L 856 3500 
L 1434 3500 
L 1009 1322 
Q 997 1256 987 1175 
Q 978 1094 978 1013 
Q 978 722 1161 565 
Q 1344 409 1684 409 
Q 2147 409 2431 671 
Q 2716 934 2816 1459 
L 3213 3500 
L 3788 3500 
L 3266 809 
Q 3253 750 3248 706 
Q 3244 663 3244 628 
Q 3244 531 3283 486 
Q 3322 441 3406 441 
Q 3438 441 3492 456 
Q 3547 472 3647 513 
L 3559 50 
Q 3422 -19 3297 -55 
Q 3172 -91 3053 -91 
Q 2847 -91 2730 40 
Q 2613 172 2613 403 
Q 2438 153 2195 31 
Q 1953 -91 1625 -91 
Q 1334 -91 1117 43 
Q 900 178 831 397 
L 494 -1331 
L -84 -1331 
z
" transform="scale(0.015625)"/>
      </defs>
      <use xlink:href="#DejaVuSans-Oblique-3bc" transform="translate(0 0.3125)"/>
     </g>
    </g>
    <g id="line2d_23">
     <path d="M 292.57 36.484531 
L 298.07 36.484531 
L 303.57 36.484531 
" style="fill: none; stroke: #1f77b4; stroke-width: 1.5; stroke-linecap: square"/>
    </g>
    <g id="text_13">
     <!-- $10^{-5}$ -->
     <g transform="translate(312.37 40.334531) scale(0.11 -0.11)">
      <defs>
       <path id="DejaVuSans-31" d="M 794 531 
L 1825 531 
L 1825 4091 
L 703 3866 
L 703 4441 
L 1819 4666 
L 2450 4666 
L 2450 531 
L 3481 531 
L 3481 0 
L 794 0 
L 794 531 
z
" transform="scale(0.015625)"/>
       <path id="DejaVuSans-30" d="M 2034 4250 
Q 1547 4250 1301 3770 
Q 1056 3291 1056 2328 
Q 1056 1369 1301 889 
Q 1547 409 2034 409 
Q 2525 409 2770 889 
Q 3016 1369 3016 2328 
Q 3016 3291 2770 3770 
Q 2525 4250 2034 4250 
z
M 2034 4750 
Q 2819 4750 3233 4129 
Q 3647 3509 3647 2328 
Q 3647 1150 3233 529 
Q 2819 -91 2034 -91 
Q 1250 -91 836 529 
Q 422 1150 422 2328 
Q 422 3509 836 4129 
Q 1250 4750 2034 4750 
z
" transform="scale(0.015625)"/>
       <path id="DejaVuSans-2212" d="M 678 2272 
L 4684 2272 
L 4684 1741 
L 678 1741 
L 678 2272 
z
" transform="scale(0.015625)"/>
       <path id="DejaVuSans-35" d="M 691 4666 
L 3169 4666 
L 3169 4134 
L 1269 4134 
L 1269 2991 
Q 1406 3038 1543 3061 
Q 1681 3084 1819 3084 
Q 2600 3084 3056 2656 
Q 3513 2228 3513 1497 
Q 3513 744 3044 326 
Q 2575 -91 1722 -91 
Q 1428 -91 1123 -41 
Q 819 9 494 109 
L 494 744 
Q 775 591 1075 516 
Q 1375 441 1709 441 
Q 2250 441 2565 725 
Q 2881 1009 2881 1497 
Q 2881 1984 2565 2268 
Q 2250 2553 1709 2553 
Q 1456 2553 1204 2497 
Q 953 2441 691 2322 
L 691 4666 
z
" transform="scale(0.015625)"/>
      </defs>
      <use xlink:href="#DejaVuSans-31" transform="translate(0 0.684375)"/>
      <use xlink:href="#DejaVuSans-30" transform="translate(63.623047 0.684375)"/>
      <use xlink:href="#DejaVuSans-2212" transform="translate(128.203125 38.965625) scale(0.7)"/>
      <use xlink:href="#DejaVuSans-35" transform="translate(186.855469 38.965625) scale(0.7)"/>
     </g>
    </g>
    <g id="line2d_24">
     <path d="M 292.57 52.630469 
L 298.07 52.630469 
L 303.57 52.630469 
" style="fill: none; stroke: #ff7f0e; stroke-width: 1.5; stroke-linecap: square"/>
    </g>
    <g id="text_14">
     <!-- $10^{-4}$ -->
     <g transform="translate(312.37 56.480469) scale(0.11 -0.11)">
      <defs>
       <path id="DejaVuSans-34" d="M 2419 4116 
L 825 1625 
L 2419 1625 
L 2419 4116 
z
M 2253 4666 
L 3047 4666 
L 3047 1625 
L 3713 1625 
L 3713 1100 
L 3047 1100 
L 3047 0 
L 2419 0 
L 2419 1100 
L 313 1100 
L 313 1709 
L 2253 4666 
z
" transform="scale(0.015625)"/>
      </defs>
      <use xlink:href="#DejaVuSans-31" transform="translate(0 0.684375)"/>
      <use xlink:href="#DejaVuSans-30" transform="translate(63.623047 0.684375)"/>
      <use xlink:href="#DejaVuSans-2212" transform="translate(128.203125 38.965625) scale(0.7)"/>
      <use xlink:href="#DejaVuSans-34" transform="translate(186.855469 38.965625) scale(0.7)"/>
     </g>
    </g>
    <g id="line2d_25">
     <path d="M 292.57 68.776406 
L 298.07 68.776406 
L 303.57 68.776406 
" style="fill: none; stroke: #2ca02c; stroke-width: 1.5; stroke-linecap: square"/>
    </g>
    <g id="text_15">
     <!-- $10^{-3}$ -->
     <g transform="translate(312.37 72.626406) scale(0.11 -0.11)">
      <defs>
       <path id="DejaVuSans-33" d="M 2597 2516 
Q 3050 2419 3304 2112 
Q 3559 1806 3559 1356 
Q 3559 666 3084 287 
Q 2609 -91 1734 -91 
Q 1441 -91 1130 -33 
Q 819 25 488 141 
L 488 750 
Q 750 597 1062 519 
Q 1375 441 1716 441 
Q 2309 441 2620 675 
Q 2931 909 2931 1356 
Q 2931 1769 2642 2001 
Q 2353 2234 1838 2234 
L 1294 2234 
L 1294 2753 
L 1863 2753 
Q 2328 2753 2575 2939 
Q 2822 3125 2822 3475 
Q 2822 3834 2567 4026 
Q 2313 4219 1838 4219 
Q 1578 4219 1281 4162 
Q 984 4106 628 3988 
L 628 4550 
Q 988 4650 1302 4700 
Q 1616 4750 1894 4750 
Q 2613 4750 3031 4423 
Q 3450 4097 3450 3541 
Q 3450 3153 3228 2886 
Q 3006 2619 2597 2516 
z
" transform="scale(0.015625)"/>
      </defs>
      <use xlink:href="#DejaVuSans-31" transform="translate(0 0.765625)"/>
      <use xlink:href="#DejaVuSans-30" transform="translate(63.623047 0.765625)"/>
      <use xlink:href="#DejaVuSans-2212" transform="translate(128.203125 39.046875) scale(0.7)"/>
      <use xlink:href="#DejaVuSans-33" transform="translate(186.855469 39.046875) scale(0.7)"/>
     </g>
    </g>
    <g id="line2d_26">
     <path d="M 292.57 84.922344 
L 298.07 84.922344 
L 303.57 84.922344 
" style="fill: none; stroke: #d62728; stroke-width: 1.5; stroke-linecap: square"/>
    </g>
    <g id="text_16">
     <!-- $10^{-2}$ -->
     <g transform="translate(312.37 88.772344) scale(0.11 -0.11)">
      <defs>
       <path id="DejaVuSans-32" d="M 1228 531 
L 3431 531 
L 3431 0 
L 469 0 
L 469 531 
Q 828 903 1448 1529 
Q 2069 2156 2228 2338 
Q 2531 2678 2651 2914 
Q 2772 3150 2772 3378 
Q 2772 3750 2511 3984 
Q 2250 4219 1831 4219 
Q 1534 4219 1204 4116 
Q 875 4013 500 3803 
L 500 4441 
Q 881 4594 1212 4672 
Q 1544 4750 1819 4750 
Q 2544 4750 2975 4387 
Q 3406 4025 3406 3419 
Q 3406 3131 3298 2873 
Q 3191 2616 2906 2266 
Q 2828 2175 2409 1742 
Q 1991 1309 1228 531 
z
" transform="scale(0.015625)"/>
      </defs>
      <use xlink:href="#DejaVuSans-31" transform="translate(0 0.765625)"/>
      <use xlink:href="#DejaVuSans-30" transform="translate(63.623047 0.765625)"/>
      <use xlink:href="#DejaVuSans-2212" transform="translate(128.203125 39.046875) scale(0.7)"/>
      <use xlink:href="#DejaVuSans-32" transform="translate(186.855469 39.046875) scale(0.7)"/>
     </g>
    </g>
   </g>
  </g>
 </g>
 <defs>
  <clipPath id="p99ea24daed">
   <rect x="56.99" y="11.88" width="291.13" height="89.08"/>
  </clipPath>
 </defs>
</svg>
